solid OpenSCAD_Model
  facet normal 0 0 -1
    outer loop
      vertex -10 0 -15
      vertex -9.78148 2.07912 -15
      vertex -9.78148 -2.07912 -15
    endloop
  endfacet
  facet normal 0 0 -1
    outer loop
      vertex -9.78148 -2.07912 -15
      vertex -9.78148 2.07912 -15
      vertex -9.13546 4.06737 -15
    endloop
  endfacet
  facet normal 0 0 -1
    outer loop
      vertex -9.78148 -2.07912 -15
      vertex -9.13546 4.06737 -15
      vertex -8.09017 5.87785 -15
    endloop
  endfacet
  facet normal 0 0 -1
    outer loop
      vertex -7.71171 4.63998 -15
      vertex -8.09017 5.87785 -15
      vertex -6.69131 7.43145 -15
    endloop
  endfacet
  facet normal 0 0 -1
    outer loop
      vertex -6.53396 6.18929 -15
      vertex -6.69131 7.43145 -15
      vertex -5 8.66025 -15
    endloop
  endfacet
  facet normal 0 0 -1
    outer loop
      vertex -5.05068 7.4492 -15
      vertex -5 8.66025 -15
      vertex -3.09017 9.51056 -15
    endloop
  endfacet
  facet normal 0 0 -1
    outer loop
      vertex -3.33124 8.36079 -15
      vertex -3.09017 9.51056 -15
      vertex -1.04529 9.94522 -15
    endloop
  endfacet
  facet normal 0 0 -1
    outer loop
      vertex -1.45604 8.88144 -15
      vertex -1.04529 9.94522 -15
      vertex 1.04529 9.94522 -15
    endloop
  endfacet
  facet normal 0 0 -1
    outer loop
      vertex 0.48725 8.9868 -15
      vertex 1.04529 9.94522 -15
      vertex 3.09017 9.51056 -15
    endloop
  endfacet
  facet normal 0 0 -1
    outer loop
      vertex 2.40775 8.67195 -15
      vertex 3.09017 9.51056 -15
      vertex 5 8.66025 -15
    endloop
  endfacet
  facet normal 0 0 -1
    outer loop
      vertex 4.21568 7.95161 -15
      vertex 5 8.66025 -15
      vertex 6.69131 7.43145 -15
    endloop
  endfacet
  facet normal 0 0 -1
    outer loop
      vertex 5.82648 6.85946 -15
      vertex 6.69131 7.43145 -15
      vertex 8.09017 5.87785 -15
    endloop
  endfacet
  facet normal 0 0 -1
    outer loop
      vertex 8.16818 3.779 -15
      vertex 8.09017 5.87785 -15
      vertex 9.13546 4.06737 -15
    endloop
  endfacet
  facet normal 0 0 -1
    outer loop
      vertex 8.78958 1.93473 -15
      vertex 9.13546 4.06737 -15
      vertex 9.78148 2.07912 -15
    endloop
  endfacet
  facet normal 0 0 -1
    outer loop
      vertex 9 0 -15
      vertex 9.78148 2.07912 -15
      vertex 10 0 -15
    endloop
  endfacet
  facet normal 0 0 -1
    outer loop
      vertex 8.78958 -1.93473 -15
      vertex 10 0 -15
      vertex 9.78148 -2.07912 -15
    endloop
  endfacet
  facet normal 0 0 -1
    outer loop
      vertex 8.16818 -3.779 -15
      vertex 9.78148 -2.07912 -15
      vertex 9.13546 -4.06737 -15
    endloop
  endfacet
  facet normal 0 0 -1
    outer loop
      vertex 7.16484 -5.44657 -15
      vertex 9.13546 -4.06737 -15
      vertex 8.09017 -5.87785 -15
    endloop
  endfacet
  facet normal 0 0 -1
    outer loop
      vertex 5.82648 -6.85946 -15
      vertex 8.09017 -5.87785 -15
      vertex 6.69131 -7.43145 -15
    endloop
  endfacet
  facet normal 0 0 -1
    outer loop
      vertex 4.21568 -7.95161 -15
      vertex 6.69131 -7.43145 -15
      vertex 5 -8.66025 -15
    endloop
  endfacet
  facet normal 0 0 -1
    outer loop
      vertex 2.40775 -8.67195 -15
      vertex 5 -8.66025 -15
      vertex 3.09017 -9.51056 -15
    endloop
  endfacet
  facet normal 0 0 -1
    outer loop
      vertex 0.48725 -8.9868 -15
      vertex 3.09017 -9.51056 -15
      vertex 1.04529 -9.94522 -15
    endloop
  endfacet
  facet normal 0 0 -1
    outer loop
      vertex -1.45604 -8.88144 -15
      vertex 1.04529 -9.94522 -15
      vertex -1.04529 -9.94522 -15
    endloop
  endfacet
  facet normal 0 0 -1
    outer loop
      vertex -3.33124 -8.36079 -15
      vertex -1.04529 -9.94522 -15
      vertex -3.09017 -9.51056 -15
    endloop
  endfacet
  facet normal 0 0 -1
    outer loop
      vertex -6.53396 -6.18929 -15
      vertex -3.09017 -9.51056 -15
      vertex -5 -8.66025 -15
    endloop
  endfacet
  facet normal 0 0 -1
    outer loop
      vertex -9.78148 -2.07912 -15
      vertex -5 -8.66025 -15
      vertex -6.69131 -7.43145 -15
    endloop
  endfacet
  facet normal 0 0 -1
    outer loop
      vertex -9.78148 -2.07912 -15
      vertex -6.69131 -7.43145 -15
      vertex -8.09017 -5.87785 -15
    endloop
  endfacet
  facet normal 0 0 -1
    outer loop
      vertex -9.78148 -2.07912 -15
      vertex -8.09017 -5.87785 -15
      vertex -9.13546 -4.06737 -15
    endloop
  endfacet
  facet normal 0 0 -1
    outer loop
      vertex -9.78148 -2.07912 -15
      vertex -8.09017 5.87785 -15
      vertex -8.94724 0.973071 -15
    endloop
  endfacet
  facet normal 0 0 -1
    outer loop
      vertex -8.52888 -2.87371 -15
      vertex -9.78148 -2.07912 -15
      vertex -8.94724 -0.973071 -15
    endloop
  endfacet
  facet normal 0 0 -1
    outer loop
      vertex -7.71171 -4.63998 -15
      vertex -9.78148 -2.07912 -15
      vertex -8.52888 -2.87371 -15
    endloop
  endfacet
  facet normal 0 0 -1
    outer loop
      vertex -3.33124 -8.36079 -15
      vertex -3.09017 -9.51056 -15
      vertex -5.05068 -7.4492 -15
    endloop
  endfacet
  facet normal 0 0 -1
    outer loop
      vertex -9.78148 -2.07912 -15
      vertex -7.71171 -4.63998 -15
      vertex -5 -8.66025 -15
    endloop
  endfacet
  facet normal 0 0 -1
    outer loop
      vertex -5.05068 -7.4492 -15
      vertex -3.09017 -9.51056 -15
      vertex -6.53396 -6.18929 -15
    endloop
  endfacet
  facet normal 0 0 -1
    outer loop
      vertex -7.71171 -4.63998 -15
      vertex -6.53396 -6.18929 -15
      vertex -5 -8.66025 -15
    endloop
  endfacet
  facet normal 0 0 -1
    outer loop
      vertex 2.40775 -8.67195 -15
      vertex 3.09017 -9.51056 -15
      vertex 0.48725 -8.9868 -15
    endloop
  endfacet
  facet normal 0 0 -1
    outer loop
      vertex 0.48725 -8.9868 -15
      vertex 1.04529 -9.94522 -15
      vertex -1.45604 -8.88144 -15
    endloop
  endfacet
  facet normal 0 0 -1
    outer loop
      vertex -1.45604 -8.88144 -15
      vertex -1.04529 -9.94522 -15
      vertex -3.33124 -8.36079 -15
    endloop
  endfacet
  facet normal 0 0 -1
    outer loop
      vertex 7.16484 5.44657 -15
      vertex 8.09017 5.87785 -15
      vertex 8.16818 3.779 -15
    endloop
  endfacet
  facet normal 0 0 -1
    outer loop
      vertex -3.33124 8.36079 -15
      vertex -1.04529 9.94522 -15
      vertex -1.45604 8.88144 -15
    endloop
  endfacet
  facet normal 0 0 -1
    outer loop
      vertex -1.45604 8.88144 -15
      vertex 1.04529 9.94522 -15
      vertex 0.48725 8.9868 -15
    endloop
  endfacet
  facet normal 0 0 -1
    outer loop
      vertex 0.48725 8.9868 -15
      vertex 3.09017 9.51056 -15
      vertex 2.40775 8.67195 -15
    endloop
  endfacet
  facet normal 0 0 -1
    outer loop
      vertex 2.40775 8.67195 -15
      vertex 5 8.66025 -15
      vertex 4.21568 7.95161 -15
    endloop
  endfacet
  facet normal 0 0 -1
    outer loop
      vertex -8.52888 2.87371 -15
      vertex -8.09017 5.87785 -15
      vertex -7.71171 4.63998 -15
    endloop
  endfacet
  facet normal 0 0 -1
    outer loop
      vertex -8.94724 0.973071 -15
      vertex -8.09017 5.87785 -15
      vertex -8.52888 2.87371 -15
    endloop
  endfacet
  facet normal 0 0 -1
    outer loop
      vertex -8.94724 -0.973071 -15
      vertex -9.78148 -2.07912 -15
      vertex -8.94724 0.973071 -15
    endloop
  endfacet
  facet normal 0 0 -1
    outer loop
      vertex -7.71171 4.63998 -15
      vertex -6.69131 7.43145 -15
      vertex -6.53396 6.18929 -15
    endloop
  endfacet
  facet normal 0 0 -1
    outer loop
      vertex -6.53396 6.18929 -15
      vertex -5 8.66025 -15
      vertex -5.05068 7.4492 -15
    endloop
  endfacet
  facet normal 0 0 -1
    outer loop
      vertex -5.05068 7.4492 -15
      vertex -3.09017 9.51056 -15
      vertex -3.33124 8.36079 -15
    endloop
  endfacet
  facet normal 0 0 -1
    outer loop
      vertex 4.21568 7.95161 -15
      vertex 6.69131 7.43145 -15
      vertex 5.82648 6.85946 -15
    endloop
  endfacet
  facet normal 0 0 -1
    outer loop
      vertex 8.16818 3.779 -15
      vertex 9.13546 4.06737 -15
      vertex 8.78958 1.93473 -15
    endloop
  endfacet
  facet normal 0 0 -1
    outer loop
      vertex 5.82648 6.85946 -15
      vertex 8.09017 5.87785 -15
      vertex 7.16484 5.44657 -15
    endloop
  endfacet
  facet normal 0 0 -1
    outer loop
      vertex 8.78958 1.93473 -15
      vertex 9.78148 2.07912 -15
      vertex 9 0 -15
    endloop
  endfacet
  facet normal 0 0 -1
    outer loop
      vertex 9 0 -15
      vertex 10 0 -15
      vertex 8.78958 -1.93473 -15
    endloop
  endfacet
  facet normal 0 0 -1
    outer loop
      vertex 8.78958 -1.93473 -15
      vertex 9.78148 -2.07912 -15
      vertex 8.16818 -3.779 -15
    endloop
  endfacet
  facet normal 0 0 -1
    outer loop
      vertex 8.16818 -3.779 -15
      vertex 9.13546 -4.06737 -15
      vertex 7.16484 -5.44657 -15
    endloop
  endfacet
  facet normal 0 0 -1
    outer loop
      vertex 7.16484 -5.44657 -15
      vertex 8.09017 -5.87785 -15
      vertex 5.82648 -6.85946 -15
    endloop
  endfacet
  facet normal 0 0 -1
    outer loop
      vertex 5.82648 -6.85946 -15
      vertex 6.69131 -7.43145 -15
      vertex 4.21568 -7.95161 -15
    endloop
  endfacet
  facet normal 0 0 -1
    outer loop
      vertex 4.21568 -7.95161 -15
      vertex 5 -8.66025 -15
      vertex 2.40775 -8.67195 -15
    endloop
  endfacet
  facet normal -0.994522 0.104528 0
    outer loop
      vertex -10 0 -15
      vertex -10 0 15
      vertex -9.78148 2.07912 -15
    endloop
  endfacet
  facet normal -0.994522 0.104528 0
    outer loop
      vertex -9.78148 2.07912 -15
      vertex -10 0 15
      vertex -9.78148 2.07912 15
    endloop
  endfacet
  facet normal -0.994522 -0.104528 0
    outer loop
      vertex -10 0 -15
      vertex -9.78148 -2.07912 -15
      vertex -10 0 15
    endloop
  endfacet
  facet normal -0.994522 -0.104528 0
    outer loop
      vertex -10 0 15
      vertex -9.78148 -2.07912 -15
      vertex -9.78148 -2.07912 15
    endloop
  endfacet
  facet normal -0.951057 -0.309017 0
    outer loop
      vertex -9.78148 -2.07912 -15
      vertex -9.13546 -4.06737 -15
      vertex -9.78148 -2.07912 15
    endloop
  endfacet
  facet normal -0.951057 -0.309017 0
    outer loop
      vertex -9.78148 -2.07912 15
      vertex -9.13546 -4.06737 -15
      vertex -9.13546 -4.06737 15
    endloop
  endfacet
  facet normal -0.866025 -0.5 0
    outer loop
      vertex -9.13546 -4.06737 -15
      vertex -8.09017 -5.87785 -15
      vertex -9.13546 -4.06737 15
    endloop
  endfacet
  facet normal -0.866025 -0.5 0
    outer loop
      vertex -9.13546 -4.06737 15
      vertex -8.09017 -5.87785 -15
      vertex -8.09017 -5.87785 15
    endloop
  endfacet
  facet normal -0.743145 -0.669131 0
    outer loop
      vertex -8.09017 -5.87785 -15
      vertex -6.69131 -7.43145 -15
      vertex -8.09017 -5.87785 15
    endloop
  endfacet
  facet normal -0.743145 -0.669131 0
    outer loop
      vertex -8.09017 -5.87785 15
      vertex -6.69131 -7.43145 -15
      vertex -6.69131 -7.43145 15
    endloop
  endfacet
  facet normal -0.587785 -0.809017 0
    outer loop
      vertex -6.69131 -7.43145 15
      vertex -6.69131 -7.43145 -15
      vertex -5 -8.66025 -15
    endloop
  endfacet
  facet normal -0.587785 -0.809017 0
    outer loop
      vertex -5 -8.66025 15
      vertex -6.69131 -7.43145 15
      vertex -5 -8.66025 -15
    endloop
  endfacet
  facet normal -0.406737 -0.913545 0
    outer loop
      vertex -5 -8.66025 15
      vertex -5 -8.66025 -15
      vertex -3.09017 -9.51056 -15
    endloop
  endfacet
  facet normal -0.406737 -0.913545 0
    outer loop
      vertex -3.09017 -9.51056 15
      vertex -5 -8.66025 15
      vertex -3.09017 -9.51056 -15
    endloop
  endfacet
  facet normal -0.207912 -0.978148 0
    outer loop
      vertex -3.09017 -9.51056 15
      vertex -3.09017 -9.51056 -15
      vertex -1.04529 -9.94522 -15
    endloop
  endfacet
  facet normal -0.207912 -0.978148 0
    outer loop
      vertex -1.04529 -9.94522 15
      vertex -3.09017 -9.51056 15
      vertex -1.04529 -9.94522 -15
    endloop
  endfacet
  facet normal 0 -1 0
    outer loop
      vertex -1.04529 -9.94522 15
      vertex -1.04529 -9.94522 -15
      vertex 1.04529 -9.94522 -15
    endloop
  endfacet
  facet normal 0 -1 0
    outer loop
      vertex 1.04529 -9.94522 15
      vertex -1.04529 -9.94522 15
      vertex 1.04529 -9.94522 -15
    endloop
  endfacet
  facet normal 0.207912 -0.978148 0
    outer loop
      vertex 1.04529 -9.94522 15
      vertex 1.04529 -9.94522 -15
      vertex 3.09017 -9.51056 -15
    endloop
  endfacet
  facet normal 0.207912 -0.978148 0
    outer loop
      vertex 3.09017 -9.51056 15
      vertex 1.04529 -9.94522 15
      vertex 3.09017 -9.51056 -15
    endloop
  endfacet
  facet normal 0.406737 -0.913545 0
    outer loop
      vertex 3.09017 -9.51056 15
      vertex 3.09017 -9.51056 -15
      vertex 5 -8.66025 -15
    endloop
  endfacet
  facet normal 0.406737 -0.913545 0
    outer loop
      vertex 5 -8.66025 15
      vertex 3.09017 -9.51056 15
      vertex 5 -8.66025 -15
    endloop
  endfacet
  facet normal 0.587785 -0.809017 0
    outer loop
      vertex 5 -8.66025 15
      vertex 5 -8.66025 -15
      vertex 6.69131 -7.43145 -15
    endloop
  endfacet
  facet normal 0.587785 -0.809017 0
    outer loop
      vertex 6.69131 -7.43145 15
      vertex 5 -8.66025 15
      vertex 6.69131 -7.43145 -15
    endloop
  endfacet
  facet normal 0.743145 -0.669131 0
    outer loop
      vertex 6.69131 -7.43145 15
      vertex 6.69131 -7.43145 -15
      vertex 8.09017 -5.87785 -15
    endloop
  endfacet
  facet normal 0.743145 -0.669131 0
    outer loop
      vertex 8.09017 -5.87785 15
      vertex 6.69131 -7.43145 15
      vertex 8.09017 -5.87785 -15
    endloop
  endfacet
  facet normal 0.866025 -0.5 0
    outer loop
      vertex 8.09017 -5.87785 15
      vertex 8.09017 -5.87785 -15
      vertex 9.13546 -4.06737 -15
    endloop
  endfacet
  facet normal 0.866025 -0.5 0
    outer loop
      vertex 9.13546 -4.06737 15
      vertex 8.09017 -5.87785 15
      vertex 9.13546 -4.06737 -15
    endloop
  endfacet
  facet normal 0.951057 -0.309017 0
    outer loop
      vertex 9.13546 -4.06737 15
      vertex 9.13546 -4.06737 -15
      vertex 9.78148 -2.07912 -15
    endloop
  endfacet
  facet normal 0.951057 -0.309017 0
    outer loop
      vertex 9.78148 -2.07912 15
      vertex 9.13546 -4.06737 15
      vertex 9.78148 -2.07912 -15
    endloop
  endfacet
  facet normal 0.994522 -0.104528 0
    outer loop
      vertex 9.78148 -2.07912 15
      vertex 9.78148 -2.07912 -15
      vertex 10 0 -15
    endloop
  endfacet
  facet normal 0.994522 -0.104528 0
    outer loop
      vertex 10 0 15
      vertex 9.78148 -2.07912 15
      vertex 10 0 -15
    endloop
  endfacet
  facet normal 0.994522 0.104528 0
    outer loop
      vertex 10 0 -15
      vertex 9.78148 2.07912 -15
      vertex 9.78148 2.07912 15
    endloop
  endfacet
  facet normal 0.994522 0.104528 0
    outer loop
      vertex 10 0 15
      vertex 10 0 -15
      vertex 9.78148 2.07912 15
    endloop
  endfacet
  facet normal 0.951057 0.309017 0
    outer loop
      vertex 9.78148 2.07912 -15
      vertex 9.13546 4.06737 -15
      vertex 9.13546 4.06737 15
    endloop
  endfacet
  facet normal 0.951057 0.309017 0
    outer loop
      vertex 9.78148 2.07912 15
      vertex 9.78148 2.07912 -15
      vertex 9.13546 4.06737 15
    endloop
  endfacet
  facet normal 0.866025 0.5 0
    outer loop
      vertex 9.13546 4.06737 -15
      vertex 8.09017 5.87785 -15
      vertex 8.09017 5.87785 15
    endloop
  endfacet
  facet normal 0.866025 0.5 0
    outer loop
      vertex 9.13546 4.06737 15
      vertex 9.13546 4.06737 -15
      vertex 8.09017 5.87785 15
    endloop
  endfacet
  facet normal 0.743145 0.669131 0
    outer loop
      vertex 8.09017 5.87785 -15
      vertex 6.69131 7.43145 -15
      vertex 6.69131 7.43145 15
    endloop
  endfacet
  facet normal 0.743145 0.669131 0
    outer loop
      vertex 8.09017 5.87785 15
      vertex 8.09017 5.87785 -15
      vertex 6.69131 7.43145 15
    endloop
  endfacet
  facet normal 0.587785 0.809017 0
    outer loop
      vertex 5 8.66025 -15
      vertex 5 8.66025 15
      vertex 6.69131 7.43145 -15
    endloop
  endfacet
  facet normal 0.587785 0.809017 0
    outer loop
      vertex 6.69131 7.43145 -15
      vertex 5 8.66025 15
      vertex 6.69131 7.43145 15
    endloop
  endfacet
  facet normal 0.406737 0.913545 0
    outer loop
      vertex 3.09017 9.51056 -15
      vertex 3.09017 9.51056 15
      vertex 5 8.66025 -15
    endloop
  endfacet
  facet normal 0.406737 0.913545 0
    outer loop
      vertex 5 8.66025 -15
      vertex 3.09017 9.51056 15
      vertex 5 8.66025 15
    endloop
  endfacet
  facet normal 0.207912 0.978148 0
    outer loop
      vertex 1.04529 9.94522 -15
      vertex 1.04529 9.94522 15
      vertex 3.09017 9.51056 -15
    endloop
  endfacet
  facet normal 0.207912 0.978148 0
    outer loop
      vertex 3.09017 9.51056 -15
      vertex 1.04529 9.94522 15
      vertex 3.09017 9.51056 15
    endloop
  endfacet
  facet normal 0 1 0
    outer loop
      vertex -1.04529 9.94522 -15
      vertex -1.04529 9.94522 15
      vertex 1.04529 9.94522 -15
    endloop
  endfacet
  facet normal 0 1 0
    outer loop
      vertex 1.04529 9.94522 -15
      vertex -1.04529 9.94522 15
      vertex 1.04529 9.94522 15
    endloop
  endfacet
  facet normal -0.207912 0.978148 0
    outer loop
      vertex -3.09017 9.51056 -15
      vertex -3.09017 9.51056 15
      vertex -1.04529 9.94522 -15
    endloop
  endfacet
  facet normal -0.207912 0.978148 0
    outer loop
      vertex -1.04529 9.94522 -15
      vertex -3.09017 9.51056 15
      vertex -1.04529 9.94522 15
    endloop
  endfacet
  facet normal -0.406737 0.913545 0
    outer loop
      vertex -5 8.66025 -15
      vertex -5 8.66025 15
      vertex -3.09017 9.51056 -15
    endloop
  endfacet
  facet normal -0.406737 0.913545 0
    outer loop
      vertex -3.09017 9.51056 -15
      vertex -5 8.66025 15
      vertex -3.09017 9.51056 15
    endloop
  endfacet
  facet normal -0.587785 0.809017 0
    outer loop
      vertex -6.69131 7.43145 -15
      vertex -6.69131 7.43145 15
      vertex -5 8.66025 -15
    endloop
  endfacet
  facet normal -0.587785 0.809017 0
    outer loop
      vertex -5 8.66025 -15
      vertex -6.69131 7.43145 15
      vertex -5 8.66025 15
    endloop
  endfacet
  facet normal -0.743145 0.669131 0
    outer loop
      vertex -8.09017 5.87785 -15
      vertex -8.09017 5.87785 15
      vertex -6.69131 7.43145 -15
    endloop
  endfacet
  facet normal -0.743145 0.669131 0
    outer loop
      vertex -6.69131 7.43145 -15
      vertex -8.09017 5.87785 15
      vertex -6.69131 7.43145 15
    endloop
  endfacet
  facet normal -0.866025 0.5 0
    outer loop
      vertex -9.13546 4.06737 -15
      vertex -9.13546 4.06737 15
      vertex -8.09017 5.87785 -15
    endloop
  endfacet
  facet normal -0.866025 0.5 0
    outer loop
      vertex -8.09017 5.87785 -15
      vertex -9.13546 4.06737 15
      vertex -8.09017 5.87785 15
    endloop
  endfacet
  facet normal -0.951057 0.309017 0
    outer loop
      vertex -9.78148 2.07912 -15
      vertex -9.78148 2.07912 15
      vertex -9.13546 4.06737 -15
    endloop
  endfacet
  facet normal -0.951057 0.309017 0
    outer loop
      vertex -9.13546 4.06737 -15
      vertex -9.78148 2.07912 15
      vertex -9.13546 4.06737 15
    endloop
  endfacet
  facet normal 0.976621 -0.21497 0
    outer loop
      vertex -8.52888 2.87371 -15
      vertex -8.52888 2.87371 15
      vertex -8.94724 0.973071 15
    endloop
  endfacet
  facet normal 0.976621 -0.21497 0
    outer loop
      vertex -8.94724 0.973071 -15
      vertex -8.52888 2.87371 -15
      vertex -8.94724 0.973071 15
    endloop
  endfacet
  facet normal 1 0 0
    outer loop
      vertex -8.94724 0.973071 -15
      vertex -8.94724 0.973071 15
      vertex -8.94724 -0.973071 15
    endloop
  endfacet
  facet normal 1 0 0
    outer loop
      vertex -8.94724 -0.973071 -15
      vertex -8.94724 0.973071 -15
      vertex -8.94724 -0.973071 15
    endloop
  endfacet
  facet normal 0.907575 -0.419889 0
    outer loop
      vertex -7.71171 4.63998 -15
      vertex -7.71171 4.63998 15
      vertex -8.52888 2.87371 15
    endloop
  endfacet
  facet normal 0.907575 -0.419889 0
    outer loop
      vertex -8.52888 2.87371 -15
      vertex -7.71171 4.63998 -15
      vertex -8.52888 2.87371 15
    endloop
  endfacet
  facet normal 0.796093 -0.605175 0
    outer loop
      vertex -6.53396 6.18929 -15
      vertex -6.53396 6.18929 15
      vertex -7.71171 4.63998 15
    endloop
  endfacet
  facet normal 0.796093 -0.605175 0
    outer loop
      vertex -7.71171 4.63998 -15
      vertex -6.53396 6.18929 -15
      vertex -7.71171 4.63998 15
    endloop
  endfacet
  facet normal 0.647387 -0.762162 0
    outer loop
      vertex -5.05068 7.4492 -15
      vertex -5.05068 7.4492 15
      vertex -6.53396 6.18929 15
    endloop
  endfacet
  facet normal 0.647387 -0.762162 0
    outer loop
      vertex -6.53396 6.18929 -15
      vertex -5.05068 7.4492 -15
      vertex -6.53396 6.18929 15
    endloop
  endfacet
  facet normal 0.468408 -0.883512 0
    outer loop
      vertex -3.33124 8.36079 -15
      vertex -3.33124 8.36079 15
      vertex -5.05068 7.4492 15
    endloop
  endfacet
  facet normal 0.468408 -0.883512 0
    outer loop
      vertex -5.05068 7.4492 -15
      vertex -3.33124 8.36079 -15
      vertex -5.05068 7.4492 15
    endloop
  endfacet
  facet normal 0.267529 -0.96355 0
    outer loop
      vertex -1.45604 8.88144 -15
      vertex -1.45604 8.88144 15
      vertex -3.33124 8.36079 15
    endloop
  endfacet
  facet normal 0.267529 -0.96355 0
    outer loop
      vertex -3.33124 8.36079 -15
      vertex -1.45604 8.88144 -15
      vertex -3.33124 8.36079 15
    endloop
  endfacet
  facet normal 0.0541389 -0.998533 0
    outer loop
      vertex 0.48725 8.9868 -15
      vertex 0.48725 8.9868 15
      vertex -1.45604 8.88144 15
    endloop
  endfacet
  facet normal 0.0541389 -0.998533 0
    outer loop
      vertex -1.45604 8.88144 -15
      vertex 0.48725 8.9868 -15
      vertex -1.45604 8.88144 15
    endloop
  endfacet
  facet normal -0.161782 -0.986827 0
    outer loop
      vertex 2.40775 8.67195 -15
      vertex 2.40775 8.67195 15
      vertex 0.48725 8.9868 15
    endloop
  endfacet
  facet normal -0.161782 -0.986827 0
    outer loop
      vertex 0.48725 8.9868 -15
      vertex 2.40775 8.67195 -15
      vertex 0.48725 8.9868 15
    endloop
  endfacet
  facet normal -0.370138 -0.928977 0
    outer loop
      vertex 4.21568 7.95161 -15
      vertex 4.21568 7.95161 15
      vertex 2.40775 8.67195 15
    endloop
  endfacet
  facet normal -0.370138 -0.928977 0
    outer loop
      vertex 2.40775 8.67195 -15
      vertex 4.21568 7.95161 -15
      vertex 2.40775 8.67195 15
    endloop
  endfacet
  facet normal -0.561187 -0.827689 0
    outer loop
      vertex 5.82648 6.85946 -15
      vertex 5.82648 6.85946 15
      vertex 4.21568 7.95161 15
    endloop
  endfacet
  facet normal -0.561187 -0.827689 0
    outer loop
      vertex 4.21568 7.95161 -15
      vertex 5.82648 6.85946 -15
      vertex 4.21568 7.95161 15
    endloop
  endfacet
  facet normal -0.725995 -0.6877 0
    outer loop
      vertex 7.16484 5.44657 15
      vertex 5.82648 6.85946 15
      vertex 7.16484 5.44657 -15
    endloop
  endfacet
  facet normal -0.725995 -0.6877 0
    outer loop
      vertex 7.16484 5.44657 -15
      vertex 5.82648 6.85946 15
      vertex 5.82648 6.85946 -15
    endloop
  endfacet
  facet normal -0.856857 -0.515554 0
    outer loop
      vertex 8.16818 3.779 15
      vertex 7.16484 5.44657 15
      vertex 8.16818 3.779 -15
    endloop
  endfacet
  facet normal -0.856857 -0.515554 0
    outer loop
      vertex 8.16818 3.779 -15
      vertex 7.16484 5.44657 15
      vertex 7.16484 5.44657 -15
    endloop
  endfacet
  facet normal -0.947653 -0.319301 0
    outer loop
      vertex 8.78958 1.93473 15
      vertex 8.16818 3.779 15
      vertex 8.78958 1.93473 -15
    endloop
  endfacet
  facet normal -0.947653 -0.319301 0
    outer loop
      vertex 8.78958 1.93473 -15
      vertex 8.16818 3.779 15
      vertex 8.16818 3.779 -15
    endloop
  endfacet
  facet normal -0.994138 -0.108119 0
    outer loop
      vertex 9 0 15
      vertex 8.78958 1.93473 15
      vertex 9 0 -15
    endloop
  endfacet
  facet normal -0.994138 -0.108119 0
    outer loop
      vertex 9 0 -15
      vertex 8.78958 1.93473 15
      vertex 8.78958 1.93473 -15
    endloop
  endfacet
  facet normal -0.994138 0.108119 0
    outer loop
      vertex 9 0 15
      vertex 9 0 -15
      vertex 8.78958 -1.93473 15
    endloop
  endfacet
  facet normal -0.994138 0.108119 0
    outer loop
      vertex 8.78958 -1.93473 15
      vertex 9 0 -15
      vertex 8.78958 -1.93473 -15
    endloop
  endfacet
  facet normal -0.947653 0.319301 0
    outer loop
      vertex 8.78958 -1.93473 15
      vertex 8.78958 -1.93473 -15
      vertex 8.16818 -3.779 15
    endloop
  endfacet
  facet normal -0.947653 0.319301 0
    outer loop
      vertex 8.16818 -3.779 15
      vertex 8.78958 -1.93473 -15
      vertex 8.16818 -3.779 -15
    endloop
  endfacet
  facet normal -0.856857 0.515554 0
    outer loop
      vertex 8.16818 -3.779 15
      vertex 8.16818 -3.779 -15
      vertex 7.16484 -5.44657 15
    endloop
  endfacet
  facet normal -0.856857 0.515554 0
    outer loop
      vertex 7.16484 -5.44657 15
      vertex 8.16818 -3.779 -15
      vertex 7.16484 -5.44657 -15
    endloop
  endfacet
  facet normal -0.725995 0.6877 0
    outer loop
      vertex 7.16484 -5.44657 15
      vertex 7.16484 -5.44657 -15
      vertex 5.82648 -6.85946 15
    endloop
  endfacet
  facet normal -0.725995 0.6877 0
    outer loop
      vertex 5.82648 -6.85946 15
      vertex 7.16484 -5.44657 -15
      vertex 5.82648 -6.85946 -15
    endloop
  endfacet
  facet normal -0.561187 0.827689 0
    outer loop
      vertex 5.82648 -6.85946 15
      vertex 5.82648 -6.85946 -15
      vertex 4.21568 -7.95161 15
    endloop
  endfacet
  facet normal -0.561187 0.827689 0
    outer loop
      vertex 4.21568 -7.95161 15
      vertex 5.82648 -6.85946 -15
      vertex 4.21568 -7.95161 -15
    endloop
  endfacet
  facet normal -0.370138 0.928977 0
    outer loop
      vertex 4.21568 -7.95161 15
      vertex 4.21568 -7.95161 -15
      vertex 2.40775 -8.67195 15
    endloop
  endfacet
  facet normal -0.370138 0.928977 0
    outer loop
      vertex 2.40775 -8.67195 15
      vertex 4.21568 -7.95161 -15
      vertex 2.40775 -8.67195 -15
    endloop
  endfacet
  facet normal -0.161782 0.986827 0
    outer loop
      vertex 2.40775 -8.67195 15
      vertex 2.40775 -8.67195 -15
      vertex 0.48725 -8.9868 15
    endloop
  endfacet
  facet normal -0.161782 0.986827 0
    outer loop
      vertex 0.48725 -8.9868 15
      vertex 2.40775 -8.67195 -15
      vertex 0.48725 -8.9868 -15
    endloop
  endfacet
  facet normal 0.0541389 0.998533 0
    outer loop
      vertex 0.48725 -8.9868 15
      vertex 0.48725 -8.9868 -15
      vertex -1.45604 -8.88144 15
    endloop
  endfacet
  facet normal 0.0541389 0.998533 0
    outer loop
      vertex -1.45604 -8.88144 15
      vertex 0.48725 -8.9868 -15
      vertex -1.45604 -8.88144 -15
    endloop
  endfacet
  facet normal 0.267529 0.96355 0
    outer loop
      vertex -1.45604 -8.88144 15
      vertex -1.45604 -8.88144 -15
      vertex -3.33124 -8.36079 15
    endloop
  endfacet
  facet normal 0.267529 0.96355 0
    outer loop
      vertex -3.33124 -8.36079 15
      vertex -1.45604 -8.88144 -15
      vertex -3.33124 -8.36079 -15
    endloop
  endfacet
  facet normal 0.468408 0.883512 0
    outer loop
      vertex -3.33124 -8.36079 15
      vertex -3.33124 -8.36079 -15
      vertex -5.05068 -7.4492 15
    endloop
  endfacet
  facet normal 0.468408 0.883512 0
    outer loop
      vertex -5.05068 -7.4492 15
      vertex -3.33124 -8.36079 -15
      vertex -5.05068 -7.4492 -15
    endloop
  endfacet
  facet normal 0.647387 0.762162 0
    outer loop
      vertex -5.05068 -7.4492 15
      vertex -5.05068 -7.4492 -15
      vertex -6.53396 -6.18929 15
    endloop
  endfacet
  facet normal 0.647387 0.762162 0
    outer loop
      vertex -6.53396 -6.18929 15
      vertex -5.05068 -7.4492 -15
      vertex -6.53396 -6.18929 -15
    endloop
  endfacet
  facet normal 0.796093 0.605175 0
    outer loop
      vertex -7.71171 -4.63998 15
      vertex -6.53396 -6.18929 15
      vertex -6.53396 -6.18929 -15
    endloop
  endfacet
  facet normal 0.796093 0.605175 0
    outer loop
      vertex -7.71171 -4.63998 -15
      vertex -7.71171 -4.63998 15
      vertex -6.53396 -6.18929 -15
    endloop
  endfacet
  facet normal 0.907575 0.419889 0
    outer loop
      vertex -8.52888 -2.87371 15
      vertex -7.71171 -4.63998 15
      vertex -7.71171 -4.63998 -15
    endloop
  endfacet
  facet normal 0.907575 0.419889 0
    outer loop
      vertex -8.52888 -2.87371 -15
      vertex -8.52888 -2.87371 15
      vertex -7.71171 -4.63998 -15
    endloop
  endfacet
  facet normal 0.976621 0.21497 0
    outer loop
      vertex -8.94724 -0.973071 15
      vertex -8.52888 -2.87371 15
      vertex -8.52888 -2.87371 -15
    endloop
  endfacet
  facet normal 0.976621 0.21497 0
    outer loop
      vertex -8.94724 -0.973071 -15
      vertex -8.94724 -0.973071 15
      vertex -8.52888 -2.87371 -15
    endloop
  endfacet
  facet normal 0 0 1
    outer loop
      vertex -9.78148 2.07912 15
      vertex -10 0 15
      vertex -9.78148 -2.07912 15
    endloop
  endfacet
  facet normal 0 0 1
    outer loop
      vertex -8.09017 -5.87785 15
      vertex -9.78148 2.07912 15
      vertex -9.13546 -4.06737 15
    endloop
  endfacet
  facet normal 0 0 1
    outer loop
      vertex -9.13546 -4.06737 15
      vertex -9.78148 2.07912 15
      vertex -9.78148 -2.07912 15
    endloop
  endfacet
  facet normal 0 0 1
    outer loop
      vertex -8.94724 -0.973071 15
      vertex -9.78148 2.07912 15
      vertex -8.09017 -5.87785 15
    endloop
  endfacet
  facet normal 0 0 1
    outer loop
      vertex 0.48725 8.9868 15
      vertex 2.40775 8.67195 15
      vertex 3.09017 9.51056 15
    endloop
  endfacet
  facet normal 0 0 1
    outer loop
      vertex -1.45604 8.88144 15
      vertex 0.48725 8.9868 15
      vertex 1.04529 9.94522 15
    endloop
  endfacet
  facet normal 0 0 1
    outer loop
      vertex -6.69131 7.43145 15
      vertex -9.78148 2.07912 15
      vertex -5 8.66025 15
    endloop
  endfacet
  facet normal 0 0 1
    outer loop
      vertex -8.09017 5.87785 15
      vertex -9.78148 2.07912 15
      vertex -6.69131 7.43145 15
    endloop
  endfacet
  facet normal 0 0 1
    outer loop
      vertex -9.13546 4.06737 15
      vertex -9.78148 2.07912 15
      vertex -8.09017 5.87785 15
    endloop
  endfacet
  facet normal 0 0 1
    outer loop
      vertex -8.52888 -2.87371 15
      vertex -8.94724 -0.973071 15
      vertex -8.09017 -5.87785 15
    endloop
  endfacet
  facet normal 0 0 1
    outer loop
      vertex 8.16818 3.779 15
      vertex 8.78958 1.93473 15
      vertex 9.78148 2.07912 15
    endloop
  endfacet
  facet normal 0 0 1
    outer loop
      vertex -3.33124 -8.36079 15
      vertex -5.05068 -7.4492 15
      vertex -3.09017 -9.51056 15
    endloop
  endfacet
  facet normal 0 0 1
    outer loop
      vertex 2.40775 8.67195 15
      vertex 4.21568 7.95161 15
      vertex 5 8.66025 15
    endloop
  endfacet
  facet normal 0 0 1
    outer loop
      vertex -3.33124 8.36079 15
      vertex -1.45604 8.88144 15
      vertex -1.04529 9.94522 15
    endloop
  endfacet
  facet normal 0 0 1
    outer loop
      vertex -5 8.66025 15
      vertex -9.78148 2.07912 15
      vertex -7.71171 4.63998 15
    endloop
  endfacet
  facet normal 0 0 1
    outer loop
      vertex -5 8.66025 15
      vertex -6.53396 6.18929 15
      vertex -3.09017 9.51056 15
    endloop
  endfacet
  facet normal 0 0 1
    outer loop
      vertex -5 8.66025 15
      vertex -7.71171 4.63998 15
      vertex -6.53396 6.18929 15
    endloop
  endfacet
  facet normal 0 0 1
    outer loop
      vertex -6.53396 6.18929 15
      vertex -5.05068 7.4492 15
      vertex -3.09017 9.51056 15
    endloop
  endfacet
  facet normal 0 0 1
    outer loop
      vertex -3.09017 9.51056 15
      vertex -3.33124 8.36079 15
      vertex -1.04529 9.94522 15
    endloop
  endfacet
  facet normal 0 0 1
    outer loop
      vertex -5.05068 7.4492 15
      vertex -3.33124 8.36079 15
      vertex -3.09017 9.51056 15
    endloop
  endfacet
  facet normal 0 0 1
    outer loop
      vertex -1.04529 9.94522 15
      vertex -1.45604 8.88144 15
      vertex 1.04529 9.94522 15
    endloop
  endfacet
  facet normal 0 0 1
    outer loop
      vertex 1.04529 9.94522 15
      vertex 0.48725 8.9868 15
      vertex 3.09017 9.51056 15
    endloop
  endfacet
  facet normal 0 0 1
    outer loop
      vertex 3.09017 9.51056 15
      vertex 2.40775 8.67195 15
      vertex 5 8.66025 15
    endloop
  endfacet
  facet normal 0 0 1
    outer loop
      vertex 5 8.66025 15
      vertex 4.21568 7.95161 15
      vertex 6.69131 7.43145 15
    endloop
  endfacet
  facet normal 0 0 1
    outer loop
      vertex 0.48725 -8.9868 15
      vertex -1.45604 -8.88144 15
      vertex 1.04529 -9.94522 15
    endloop
  endfacet
  facet normal 0 0 1
    outer loop
      vertex 6.69131 7.43145 15
      vertex 5.82648 6.85946 15
      vertex 8.09017 5.87785 15
    endloop
  endfacet
  facet normal 0 0 1
    outer loop
      vertex -8.52888 2.87371 15
      vertex -7.71171 4.63998 15
      vertex -9.78148 2.07912 15
    endloop
  endfacet
  facet normal 0 0 1
    outer loop
      vertex 8.09017 5.87785 15
      vertex 7.16484 5.44657 15
      vertex 9.13546 4.06737 15
    endloop
  endfacet
  facet normal 0 0 1
    outer loop
      vertex 9.13546 4.06737 15
      vertex 8.16818 3.779 15
      vertex 9.78148 2.07912 15
    endloop
  endfacet
  facet normal 0 0 1
    outer loop
      vertex 9.78148 2.07912 15
      vertex 8.78958 1.93473 15
      vertex 10 0 15
    endloop
  endfacet
  facet normal 0 0 1
    outer loop
      vertex 10 0 15
      vertex 9 0 15
      vertex 9.78148 -2.07912 15
    endloop
  endfacet
  facet normal 0 0 1
    outer loop
      vertex 9.78148 -2.07912 15
      vertex 8.78958 -1.93473 15
      vertex 9.13546 -4.06737 15
    endloop
  endfacet
  facet normal 0 0 1
    outer loop
      vertex 9.13546 -4.06737 15
      vertex 8.16818 -3.779 15
      vertex 8.09017 -5.87785 15
    endloop
  endfacet
  facet normal 0 0 1
    outer loop
      vertex 8.16818 -3.779 15
      vertex 7.16484 -5.44657 15
      vertex 8.09017 -5.87785 15
    endloop
  endfacet
  facet normal 0 0 1
    outer loop
      vertex 8.09017 -5.87785 15
      vertex 5.82648 -6.85946 15
      vertex 6.69131 -7.43145 15
    endloop
  endfacet
  facet normal 0 0 1
    outer loop
      vertex 6.69131 -7.43145 15
      vertex 4.21568 -7.95161 15
      vertex 5 -8.66025 15
    endloop
  endfacet
  facet normal 0 0 1
    outer loop
      vertex 5 -8.66025 15
      vertex 2.40775 -8.67195 15
      vertex 3.09017 -9.51056 15
    endloop
  endfacet
  facet normal 0 0 1
    outer loop
      vertex 3.09017 -9.51056 15
      vertex 0.48725 -8.9868 15
      vertex 1.04529 -9.94522 15
    endloop
  endfacet
  facet normal 0 0 1
    outer loop
      vertex 1.04529 -9.94522 15
      vertex -1.45604 -8.88144 15
      vertex -1.04529 -9.94522 15
    endloop
  endfacet
  facet normal 0 0 1
    outer loop
      vertex -1.04529 -9.94522 15
      vertex -3.33124 -8.36079 15
      vertex -3.09017 -9.51056 15
    endloop
  endfacet
  facet normal 0 0 1
    outer loop
      vertex 4.21568 7.95161 15
      vertex 5.82648 6.85946 15
      vertex 6.69131 7.43145 15
    endloop
  endfacet
  facet normal 0 0 1
    outer loop
      vertex -3.09017 -9.51056 15
      vertex -5.05068 -7.4492 15
      vertex -5 -8.66025 15
    endloop
  endfacet
  facet normal 0 0 1
    outer loop
      vertex 5.82648 6.85946 15
      vertex 7.16484 5.44657 15
      vertex 8.09017 5.87785 15
    endloop
  endfacet
  facet normal 0 0 1
    outer loop
      vertex -5 -8.66025 15
      vertex -6.53396 -6.18929 15
      vertex -6.69131 -7.43145 15
    endloop
  endfacet
  facet normal 0 0 1
    outer loop
      vertex 7.16484 5.44657 15
      vertex 8.16818 3.779 15
      vertex 9.13546 4.06737 15
    endloop
  endfacet
  facet normal 0 0 1
    outer loop
      vertex -6.69131 -7.43145 15
      vertex -7.71171 -4.63998 15
      vertex -8.09017 -5.87785 15
    endloop
  endfacet
  facet normal 0 0 1
    outer loop
      vertex -7.71171 -4.63998 15
      vertex -8.52888 -2.87371 15
      vertex -8.09017 -5.87785 15
    endloop
  endfacet
  facet normal 0 0 1
    outer loop
      vertex -5.05068 -7.4492 15
      vertex -6.53396 -6.18929 15
      vertex -5 -8.66025 15
    endloop
  endfacet
  facet normal 0 0 1
    outer loop
      vertex -8.94724 -0.973071 15
      vertex -8.94724 0.973071 15
      vertex -9.78148 2.07912 15
    endloop
  endfacet
  facet normal 0 0 1
    outer loop
      vertex 8.78958 1.93473 15
      vertex 9 0 15
      vertex 10 0 15
    endloop
  endfacet
  facet normal 0 0 1
    outer loop
      vertex 9 0 15
      vertex 8.78958 -1.93473 15
      vertex 9.78148 -2.07912 15
    endloop
  endfacet
  facet normal 0 0 1
    outer loop
      vertex 8.78958 -1.93473 15
      vertex 8.16818 -3.779 15
      vertex 9.13546 -4.06737 15
    endloop
  endfacet
  facet normal 0 0 1
    outer loop
      vertex 4.21568 -7.95161 15
      vertex 2.40775 -8.67195 15
      vertex 5 -8.66025 15
    endloop
  endfacet
  facet normal 0 0 1
    outer loop
      vertex 7.16484 -5.44657 15
      vertex 5.82648 -6.85946 15
      vertex 8.09017 -5.87785 15
    endloop
  endfacet
  facet normal 0 0 1
    outer loop
      vertex 5.82648 -6.85946 15
      vertex 4.21568 -7.95161 15
      vertex 6.69131 -7.43145 15
    endloop
  endfacet
  facet normal 0 0 1
    outer loop
      vertex 2.40775 -8.67195 15
      vertex 0.48725 -8.9868 15
      vertex 3.09017 -9.51056 15
    endloop
  endfacet
  facet normal 0 0 1
    outer loop
      vertex -6.53396 -6.18929 15
      vertex -7.71171 -4.63998 15
      vertex -6.69131 -7.43145 15
    endloop
  endfacet
  facet normal 0 0 1
    outer loop
      vertex -1.45604 -8.88144 15
      vertex -3.33124 -8.36079 15
      vertex -1.04529 -9.94522 15
    endloop
  endfacet
  facet normal 0 0 1
    outer loop
      vertex -8.94724 0.973071 15
      vertex -8.52888 2.87371 15
      vertex -9.78148 2.07912 15
    endloop
  endfacet
endsolid OpenSCAD_Model
