solid OpenSCAD_Model
  facet normal 0 0 -1
    outer loop
      vertex -10 0 -10
      vertex -9.78148 2.07912 -10
      vertex -9.78148 -2.07912 -10
    endloop
  endfacet
  facet normal 0 0 -1
    outer loop
      vertex -9.78148 -2.07912 -10
      vertex -9.78148 2.07912 -10
      vertex -9.13546 4.06737 -10
    endloop
  endfacet
  facet normal 0 0 -1
    outer loop
      vertex -9.2924 1.97516 -10
      vertex -9.13546 4.06737 -10
      vertex -8.09017 5.87785 -10
    endloop
  endfacet
  facet normal 0 0 -1
    outer loop
      vertex -7.68566 5.58396 -10
      vertex -8.09017 5.87785 -10
      vertex -6.69131 7.43145 -10
    endloop
  endfacet
  facet normal 0 0 -1
    outer loop
      vertex -6.35674 7.05988 -10
      vertex -6.69131 7.43145 -10
      vertex -5 8.66025 -10
    endloop
  endfacet
  facet normal 0 0 -1
    outer loop
      vertex -4.75 8.22724 -10
      vertex -5 8.66025 -10
      vertex -3.09017 9.51056 -10
    endloop
  endfacet
  facet normal 0 0 -1
    outer loop
      vertex -2.93566 9.03504 -10
      vertex -3.09017 9.51056 -10
      vertex -1.04529 9.94522 -10
    endloop
  endfacet
  facet normal 0 0 -1
    outer loop
      vertex -0.25 9.44796 -10
      vertex -1.04529 9.94522 -10
      vertex 1.04529 9.94522 -10
    endloop
  endfacet
  facet normal 0 0 -1
    outer loop
      vertex 0.99302 9.44796 -10
      vertex 1.04529 9.94522 -10
      vertex 3.09017 9.51056 -10
    endloop
  endfacet
  facet normal 0 0 -1
    outer loop
      vertex 2.93566 9.03504 -10
      vertex 3.09017 9.51056 -10
      vertex 5 8.66025 -10
    endloop
  endfacet
  facet normal 0 0 -1
    outer loop
      vertex 4.75 8.22724 -10
      vertex 5 8.66025 -10
      vertex 6.69131 7.43145 -10
    endloop
  endfacet
  facet normal 0 0 -1
    outer loop
      vertex 6.35674 7.05988 -10
      vertex 6.69131 7.43145 -10
      vertex 8.09017 5.87785 -10
    endloop
  endfacet
  facet normal 0 0 -1
    outer loop
      vertex 7.68566 5.58396 -10
      vertex 8.09017 5.87785 -10
      vertex 9.13546 4.06737 -10
    endloop
  endfacet
  facet normal 0 0 -1
    outer loop
      vertex 8.67868 3.864 -10
      vertex 9.13546 4.06737 -10
      vertex 9.78148 2.07912 -10
    endloop
  endfacet
  facet normal 0 0 -1
    outer loop
      vertex 9.47372 0.25 -10
      vertex 9.78148 2.07912 -10
      vertex 10 0 -10
    endloop
  endfacet
  facet normal 0 0 -1
    outer loop
      vertex 9.2924 -1.97516 -10
      vertex 10 0 -10
      vertex 9.78148 -2.07912 -10
    endloop
  endfacet
  facet normal 0 0 -1
    outer loop
      vertex 8.67868 -3.864 -10
      vertex 9.78148 -2.07912 -10
      vertex 9.13546 -4.06737 -10
    endloop
  endfacet
  facet normal 0 0 -1
    outer loop
      vertex 7.68566 -5.58396 -10
      vertex 9.13546 -4.06737 -10
      vertex 8.09017 -5.87785 -10
    endloop
  endfacet
  facet normal 0 0 -1
    outer loop
      vertex 6.35674 -7.05988 -10
      vertex 8.09017 -5.87785 -10
      vertex 6.69131 -7.43145 -10
    endloop
  endfacet
  facet normal 0 0 -1
    outer loop
      vertex 4.75 -8.22724 -10
      vertex 6.69131 -7.43145 -10
      vertex 5 -8.66025 -10
    endloop
  endfacet
  facet normal 0 0 -1
    outer loop
      vertex 2.93566 -9.03504 -10
      vertex 5 -8.66025 -10
      vertex 3.09017 -9.51056 -10
    endloop
  endfacet
  facet normal 0 0 -1
    outer loop
      vertex 0.99302 -9.44796 -10
      vertex 3.09017 -9.51056 -10
      vertex 1.04529 -9.94522 -10
    endloop
  endfacet
  facet normal 0 0 -1
    outer loop
      vertex -0.99302 -9.44796 -10
      vertex 1.04529 -9.94522 -10
      vertex -1.04529 -9.94522 -10
    endloop
  endfacet
  facet normal 0 0 -1
    outer loop
      vertex -2.93566 -9.03504 -10
      vertex -1.04529 -9.94522 -10
      vertex -3.09017 -9.51056 -10
    endloop
  endfacet
  facet normal 0 0 -1
    outer loop
      vertex -4.75 -8.22724 -10
      vertex -3.09017 -9.51056 -10
      vertex -5 -8.66025 -10
    endloop
  endfacet
  facet normal 0 0 -1
    outer loop
      vertex -7.68566 -5.58396 -10
      vertex -5 -8.66025 -10
      vertex -6.69131 -7.43145 -10
    endloop
  endfacet
  facet normal 0 0 -1
    outer loop
      vertex -9.78148 -2.07912 -10
      vertex -6.69131 -7.43145 -10
      vertex -8.09017 -5.87785 -10
    endloop
  endfacet
  facet normal 0 0 -1
    outer loop
      vertex -9.78148 -2.07912 -10
      vertex -8.09017 -5.87785 -10
      vertex -9.13546 -4.06737 -10
    endloop
  endfacet
  facet normal 0 0 -1
    outer loop
      vertex -3.19831 0.25 -10
      vertex -9.47372 -0.25 -10
      vertex -9.47372 0.25 -10
    endloop
  endfacet
  facet normal 0 0 -1
    outer loop
      vertex -9.2924 -1.97516 -10
      vertex -9.78148 -2.07912 -10
      vertex -9.47372 -0.25 -10
    endloop
  endfacet
  facet normal 0 0 -1
    outer loop
      vertex -4.75 -8.22724 -10
      vertex -5 -8.66025 -10
      vertex -6.35674 -7.05988 -10
    endloop
  endfacet
  facet normal 0 0 -1
    outer loop
      vertex -9.78148 -2.07912 -10
      vertex -8.67868 -3.864 -10
      vertex -6.69131 -7.43145 -10
    endloop
  endfacet
  facet normal 0 0 -1
    outer loop
      vertex -6.35674 -7.05988 -10
      vertex -5 -8.66025 -10
      vertex -7.68566 -5.58396 -10
    endloop
  endfacet
  facet normal 0 0 -1
    outer loop
      vertex -8.67868 -3.864 -10
      vertex -7.68566 -5.58396 -10
      vertex -6.69131 -7.43145 -10
    endloop
  endfacet
  facet normal 0 0 -1
    outer loop
      vertex 2.93566 9.03504 -10
      vertex 5 8.66025 -10
      vertex 4.75 8.22724 -10
    endloop
  endfacet
  facet normal 0 0 -1
    outer loop
      vertex -0.25 -9.44796 -10
      vertex 1.04529 -9.94522 -10
      vertex -0.99302 -9.44796 -10
    endloop
  endfacet
  facet normal 0 0 -1
    outer loop
      vertex 0.25 -9.44796 -10
      vertex 1.04529 -9.94522 -10
      vertex -0.25 -9.44796 -10
    endloop
  endfacet
  facet normal 0 0 -1
    outer loop
      vertex 0.25 3.19525 -10
      vertex -3.19831 0.939109 -10
      vertex -0.25 3.26714 -10
    endloop
  endfacet
  facet normal 0 0 -1
    outer loop
      vertex 7.68566 -5.58396 -10
      vertex 8.09017 -5.87785 -10
      vertex 6.35674 -7.05988 -10
    endloop
  endfacet
  facet normal 0 0 -1
    outer loop
      vertex 0.25 3.19525 -10
      vertex -0.25 3.26714 -10
      vertex -0.25 9.44796 -10
    endloop
  endfacet
  facet normal 0 0 -1
    outer loop
      vertex -9.47372 0.25 -10
      vertex -9.13546 4.06737 -10
      vertex -9.2924 1.97516 -10
    endloop
  endfacet
  facet normal 0 0 -1
    outer loop
      vertex -8.67868 3.864 -10
      vertex -9.2924 1.97516 -10
      vertex -8.09017 5.87785 -10
    endloop
  endfacet
  facet normal 0 0 -1
    outer loop
      vertex -9.78148 -2.07912 -10
      vertex -9.13546 4.06737 -10
      vertex -9.47372 0.25 -10
    endloop
  endfacet
  facet normal 0 0 -1
    outer loop
      vertex -9.78148 -2.07912 -10
      vertex -9.47372 0.25 -10
      vertex -9.47372 -0.25 -10
    endloop
  endfacet
  facet normal 0 0 -1
    outer loop
      vertex -4.75 8.22724 -10
      vertex -3.09017 9.51056 -10
      vertex -2.93566 9.03504 -10
    endloop
  endfacet
  facet normal 0 0 -1
    outer loop
      vertex 2.80418 1.80214 -10
      vertex -3.19831 0.25 -10
      vertex -3.19831 0.939109 -10
    endloop
  endfacet
  facet normal 0 0 -1
    outer loop
      vertex -7.68566 5.58396 -10
      vertex -6.69131 7.43145 -10
      vertex -6.35674 7.05988 -10
    endloop
  endfacet
  facet normal 0 0 -1
    outer loop
      vertex -6.35674 7.05988 -10
      vertex -5 8.66025 -10
      vertex -4.75 8.22724 -10
    endloop
  endfacet
  facet normal 0 0 -1
    outer loop
      vertex -0.99302 9.44796 -10
      vertex -1.04529 9.94522 -10
      vertex -0.25 9.44796 -10
    endloop
  endfacet
  facet normal 0 0 -1
    outer loop
      vertex 0.25 9.44796 -10
      vertex -0.25 9.44796 -10
      vertex 1.04529 9.94522 -10
    endloop
  endfacet
  facet normal 0 0 -1
    outer loop
      vertex 1.38472 -3.03211 -10
      vertex -2.18287 -2.51917 -10
      vertex 2.80418 -1.80214 -10
    endloop
  endfacet
  facet normal 0 0 -1
    outer loop
      vertex -8.67868 3.864 -10
      vertex -8.09017 5.87785 -10
      vertex -7.68566 5.58396 -10
    endloop
  endfacet
  facet normal 0 0 -1
    outer loop
      vertex 0.25 -9.44796 -10
      vertex -0.25 -3.26714 -10
      vertex 0.25 -3.19525 -10
    endloop
  endfacet
  facet normal 0 0 -1
    outer loop
      vertex 6.35674 -7.05988 -10
      vertex 6.69131 -7.43145 -10
      vertex 4.75 -8.22724 -10
    endloop
  endfacet
  facet normal 0 0 -1
    outer loop
      vertex 0.99302 -9.44796 -10
      vertex 1.04529 -9.94522 -10
      vertex 0.25 -9.44796 -10
    endloop
  endfacet
  facet normal 0 0 -1
    outer loop
      vertex -0.25 -3.26714 -10
      vertex 0.25 -9.44796 -10
      vertex -0.25 -9.44796 -10
    endloop
  endfacet
  facet normal 0 0 -1
    outer loop
      vertex -2.93566 9.03504 -10
      vertex -1.04529 9.94522 -10
      vertex -0.99302 9.44796 -10
    endloop
  endfacet
  facet normal 0 0 -1
    outer loop
      vertex 8.67868 -3.864 -10
      vertex 9.13546 -4.06737 -10
      vertex 7.68566 -5.58396 -10
    endloop
  endfacet
  facet normal 0 0 -1
    outer loop
      vertex 0.25 3.19525 -10
      vertex -0.25 9.44796 -10
      vertex 0.25 9.44796 -10
    endloop
  endfacet
  facet normal 0 0 -1
    outer loop
      vertex 9.2924 -1.97516 -10
      vertex 9.78148 -2.07912 -10
      vertex 8.67868 -3.864 -10
    endloop
  endfacet
  facet normal 0 0 -1
    outer loop
      vertex 9.47372 -0.25 -10
      vertex 10 0 -10
      vertex 9.2924 -1.97516 -10
    endloop
  endfacet
  facet normal 0 0 -1
    outer loop
      vertex 2.80418 -1.80214 -10
      vertex -3.19831 -0.939109 -10
      vertex 3.25993 -0.25 -10
    endloop
  endfacet
  facet normal 0 0 -1
    outer loop
      vertex 3.25993 -0.25 -10
      vertex 10 0 -10
      vertex 9.47372 -0.25 -10
    endloop
  endfacet
  facet normal 0 0 -1
    outer loop
      vertex 2.80418 1.80214 -10
      vertex -3.19831 -0.25 -10
      vertex -3.19831 0.25 -10
    endloop
  endfacet
  facet normal 0 0 -1
    outer loop
      vertex -3.19831 0.939109 -10
      vertex 0.25 3.19525 -10
      vertex 1.38472 3.03211 -10
    endloop
  endfacet
  facet normal 0 0 -1
    outer loop
      vertex 3.25993 0.25 -10
      vertex -3.19831 -0.939109 -10
      vertex -3.19831 -0.25 -10
    endloop
  endfacet
  facet normal 0 0 -1
    outer loop
      vertex 9.47372 0.25 -10
      vertex 3.25993 -0.25 -10
      vertex 3.25993 0.25 -10
    endloop
  endfacet
  facet normal 0 0 -1
    outer loop
      vertex -3.19831 -0.939109 -10
      vertex 3.25993 0.25 -10
      vertex 3.25993 -0.25 -10
    endloop
  endfacet
  facet normal 0 0 -1
    outer loop
      vertex 9.2924 1.97516 -10
      vertex 9.78148 2.07912 -10
      vertex 9.47372 0.25 -10
    endloop
  endfacet
  facet normal 0 0 -1
    outer loop
      vertex 3.25993 -0.25 -10
      vertex 9.47372 0.25 -10
      vertex 10 0 -10
    endloop
  endfacet
  facet normal 0 0 -1
    outer loop
      vertex 7.68566 5.58396 -10
      vertex 9.13546 4.06737 -10
      vertex 8.67868 3.864 -10
    endloop
  endfacet
  facet normal 0 0 -1
    outer loop
      vertex 8.67868 3.864 -10
      vertex 9.78148 2.07912 -10
      vertex 9.2924 1.97516 -10
    endloop
  endfacet
  facet normal 0 0 -1
    outer loop
      vertex 4.75 8.22724 -10
      vertex 6.69131 7.43145 -10
      vertex 6.35674 7.05988 -10
    endloop
  endfacet
  facet normal 0 0 -1
    outer loop
      vertex 4.75 -8.22724 -10
      vertex 5 -8.66025 -10
      vertex 2.93566 -9.03504 -10
    endloop
  endfacet
  facet normal 0 0 -1
    outer loop
      vertex -2.18287 -2.51917 -10
      vertex 0.25 -3.19525 -10
      vertex -0.25 -3.26714 -10
    endloop
  endfacet
  facet normal 0 0 -1
    outer loop
      vertex -2.18287 -2.51917 -10
      vertex -0.25 -3.26714 -10
      vertex -0.474383 -3.2994 -10
    endloop
  endfacet
  facet normal 0 0 -1
    outer loop
      vertex -3.19831 -0.939109 -10
      vertex 2.80418 -1.80214 -10
      vertex -2.18287 -2.51917 -10
    endloop
  endfacet
  facet normal 0 0 -1
    outer loop
      vertex -2.18287 -2.51917 -10
      vertex 1.38472 -3.03211 -10
      vertex 0.25 -3.19525 -10
    endloop
  endfacet
  facet normal 0 0 -1
    outer loop
      vertex 2.80418 1.80214 -10
      vertex -3.19831 0.939109 -10
      vertex 1.38472 3.03211 -10
    endloop
  endfacet
  facet normal 0 0 -1
    outer loop
      vertex 6.35674 7.05988 -10
      vertex 8.09017 5.87785 -10
      vertex 7.68566 5.58396 -10
    endloop
  endfacet
  facet normal 0 0 -1
    outer loop
      vertex 2.93566 -9.03504 -10
      vertex 3.09017 -9.51056 -10
      vertex 0.99302 -9.44796 -10
    endloop
  endfacet
  facet normal 0 0 -1
    outer loop
      vertex -2.18287 2.51917 -10
      vertex -0.474383 3.2994 -10
      vertex -0.25 3.26714 -10
    endloop
  endfacet
  facet normal 0 0 -1
    outer loop
      vertex -2.18287 2.51917 -10
      vertex -0.25 3.26714 -10
      vertex -3.19831 0.939109 -10
    endloop
  endfacet
  facet normal 0 0 -1
    outer loop
      vertex 0.99302 9.44796 -10
      vertex 3.09017 9.51056 -10
      vertex 2.93566 9.03504 -10
    endloop
  endfacet
  facet normal 0 0 -1
    outer loop
      vertex 0.25 9.44796 -10
      vertex 1.04529 9.94522 -10
      vertex 0.99302 9.44796 -10
    endloop
  endfacet
  facet normal 0 0 -1
    outer loop
      vertex 3.25993 0.25 -10
      vertex -3.19831 -0.25 -10
      vertex 2.80418 1.80214 -10
    endloop
  endfacet
  facet normal 0 0 -1
    outer loop
      vertex -9.47372 -0.25 -10
      vertex -3.19831 0.25 -10
      vertex -3.19831 -0.25 -10
    endloop
  endfacet
  facet normal 0 0 -1
    outer loop
      vertex -8.67868 -3.864 -10
      vertex -9.78148 -2.07912 -10
      vertex -9.2924 -1.97516 -10
    endloop
  endfacet
  facet normal 0 0 -1
    outer loop
      vertex -0.99302 -9.44796 -10
      vertex -1.04529 -9.94522 -10
      vertex -2.93566 -9.03504 -10
    endloop
  endfacet
  facet normal 0 0 -1
    outer loop
      vertex -2.93566 -9.03504 -10
      vertex -3.09017 -9.51056 -10
      vertex -4.75 -8.22724 -10
    endloop
  endfacet
  facet normal -0.994522 0.104528 0
    outer loop
      vertex -10 0 -10
      vertex -10 0 10
      vertex -9.78148 2.07912 -10
    endloop
  endfacet
  facet normal -0.994522 0.104528 0
    outer loop
      vertex -9.78148 2.07912 -10
      vertex -10 0 10
      vertex -9.78148 2.07912 10
    endloop
  endfacet
  facet normal -0.994522 -0.104528 0
    outer loop
      vertex -10 0 -10
      vertex -9.78148 -2.07912 -10
      vertex -10 0 10
    endloop
  endfacet
  facet normal -0.994522 -0.104528 0
    outer loop
      vertex -10 0 10
      vertex -9.78148 -2.07912 -10
      vertex -9.78148 -2.07912 10
    endloop
  endfacet
  facet normal -0.951057 -0.309017 0
    outer loop
      vertex -9.78148 -2.07912 -10
      vertex -9.13546 -4.06737 -10
      vertex -9.78148 -2.07912 10
    endloop
  endfacet
  facet normal -0.951057 -0.309017 0
    outer loop
      vertex -9.78148 -2.07912 10
      vertex -9.13546 -4.06737 -10
      vertex -9.13546 -4.06737 10
    endloop
  endfacet
  facet normal -0.866025 -0.5 0
    outer loop
      vertex -9.13546 -4.06737 -10
      vertex -8.09017 -5.87785 -10
      vertex -9.13546 -4.06737 10
    endloop
  endfacet
  facet normal -0.866025 -0.5 0
    outer loop
      vertex -9.13546 -4.06737 10
      vertex -8.09017 -5.87785 -10
      vertex -8.09017 -5.87785 10
    endloop
  endfacet
  facet normal -0.743145 -0.669131 0
    outer loop
      vertex -8.09017 -5.87785 -10
      vertex -6.69131 -7.43145 -10
      vertex -8.09017 -5.87785 10
    endloop
  endfacet
  facet normal -0.743145 -0.669131 0
    outer loop
      vertex -8.09017 -5.87785 10
      vertex -6.69131 -7.43145 -10
      vertex -6.69131 -7.43145 10
    endloop
  endfacet
  facet normal -0.587785 -0.809017 0
    outer loop
      vertex -6.69131 -7.43145 10
      vertex -6.69131 -7.43145 -10
      vertex -5 -8.66025 -10
    endloop
  endfacet
  facet normal -0.587785 -0.809017 0
    outer loop
      vertex -5 -8.66025 10
      vertex -6.69131 -7.43145 10
      vertex -5 -8.66025 -10
    endloop
  endfacet
  facet normal -0.406737 -0.913545 0
    outer loop
      vertex -5 -8.66025 10
      vertex -5 -8.66025 -10
      vertex -3.09017 -9.51056 -10
    endloop
  endfacet
  facet normal -0.406737 -0.913545 0
    outer loop
      vertex -3.09017 -9.51056 10
      vertex -5 -8.66025 10
      vertex -3.09017 -9.51056 -10
    endloop
  endfacet
  facet normal -0.207912 -0.978148 0
    outer loop
      vertex -3.09017 -9.51056 10
      vertex -3.09017 -9.51056 -10
      vertex -1.04529 -9.94522 -10
    endloop
  endfacet
  facet normal -0.207912 -0.978148 0
    outer loop
      vertex -1.04529 -9.94522 10
      vertex -3.09017 -9.51056 10
      vertex -1.04529 -9.94522 -10
    endloop
  endfacet
  facet normal 0 -1 0
    outer loop
      vertex -1.04529 -9.94522 10
      vertex -1.04529 -9.94522 -10
      vertex 1.04529 -9.94522 -10
    endloop
  endfacet
  facet normal 0 -1 0
    outer loop
      vertex 1.04529 -9.94522 10
      vertex -1.04529 -9.94522 10
      vertex 1.04529 -9.94522 -10
    endloop
  endfacet
  facet normal 0.207912 -0.978148 0
    outer loop
      vertex 1.04529 -9.94522 10
      vertex 1.04529 -9.94522 -10
      vertex 3.09017 -9.51056 -10
    endloop
  endfacet
  facet normal 0.207912 -0.978148 0
    outer loop
      vertex 3.09017 -9.51056 10
      vertex 1.04529 -9.94522 10
      vertex 3.09017 -9.51056 -10
    endloop
  endfacet
  facet normal 0.406737 -0.913545 0
    outer loop
      vertex 3.09017 -9.51056 10
      vertex 3.09017 -9.51056 -10
      vertex 5 -8.66025 -10
    endloop
  endfacet
  facet normal 0.406737 -0.913545 0
    outer loop
      vertex 5 -8.66025 10
      vertex 3.09017 -9.51056 10
      vertex 5 -8.66025 -10
    endloop
  endfacet
  facet normal 0.587785 -0.809017 0
    outer loop
      vertex 5 -8.66025 10
      vertex 5 -8.66025 -10
      vertex 6.69131 -7.43145 -10
    endloop
  endfacet
  facet normal 0.587785 -0.809017 0
    outer loop
      vertex 6.69131 -7.43145 10
      vertex 5 -8.66025 10
      vertex 6.69131 -7.43145 -10
    endloop
  endfacet
  facet normal 0.743145 -0.669131 0
    outer loop
      vertex 6.69131 -7.43145 10
      vertex 6.69131 -7.43145 -10
      vertex 8.09017 -5.87785 -10
    endloop
  endfacet
  facet normal 0.743145 -0.669131 0
    outer loop
      vertex 8.09017 -5.87785 10
      vertex 6.69131 -7.43145 10
      vertex 8.09017 -5.87785 -10
    endloop
  endfacet
  facet normal 0.866025 -0.5 0
    outer loop
      vertex 8.09017 -5.87785 10
      vertex 8.09017 -5.87785 -10
      vertex 9.13546 -4.06737 -10
    endloop
  endfacet
  facet normal 0.866025 -0.5 0
    outer loop
      vertex 9.13546 -4.06737 10
      vertex 8.09017 -5.87785 10
      vertex 9.13546 -4.06737 -10
    endloop
  endfacet
  facet normal 0.951057 -0.309017 0
    outer loop
      vertex 9.13546 -4.06737 10
      vertex 9.13546 -4.06737 -10
      vertex 9.78148 -2.07912 -10
    endloop
  endfacet
  facet normal 0.951057 -0.309017 0
    outer loop
      vertex 9.78148 -2.07912 10
      vertex 9.13546 -4.06737 10
      vertex 9.78148 -2.07912 -10
    endloop
  endfacet
  facet normal 0.994522 -0.104528 0
    outer loop
      vertex 9.78148 -2.07912 10
      vertex 9.78148 -2.07912 -10
      vertex 10 0 -10
    endloop
  endfacet
  facet normal 0.994522 -0.104528 0
    outer loop
      vertex 10 0 10
      vertex 9.78148 -2.07912 10
      vertex 10 0 -10
    endloop
  endfacet
  facet normal 0.994522 0.104528 0
    outer loop
      vertex 10 0 -10
      vertex 9.78148 2.07912 -10
      vertex 9.78148 2.07912 10
    endloop
  endfacet
  facet normal 0.994522 0.104528 0
    outer loop
      vertex 10 0 10
      vertex 10 0 -10
      vertex 9.78148 2.07912 10
    endloop
  endfacet
  facet normal 0.951057 0.309017 0
    outer loop
      vertex 9.78148 2.07912 -10
      vertex 9.13546 4.06737 -10
      vertex 9.13546 4.06737 10
    endloop
  endfacet
  facet normal 0.951057 0.309017 0
    outer loop
      vertex 9.78148 2.07912 10
      vertex 9.78148 2.07912 -10
      vertex 9.13546 4.06737 10
    endloop
  endfacet
  facet normal 0.866025 0.5 0
    outer loop
      vertex 9.13546 4.06737 -10
      vertex 8.09017 5.87785 -10
      vertex 8.09017 5.87785 10
    endloop
  endfacet
  facet normal 0.866025 0.5 0
    outer loop
      vertex 9.13546 4.06737 10
      vertex 9.13546 4.06737 -10
      vertex 8.09017 5.87785 10
    endloop
  endfacet
  facet normal 0.743145 0.669131 0
    outer loop
      vertex 8.09017 5.87785 -10
      vertex 6.69131 7.43145 -10
      vertex 6.69131 7.43145 10
    endloop
  endfacet
  facet normal 0.743145 0.669131 0
    outer loop
      vertex 8.09017 5.87785 10
      vertex 8.09017 5.87785 -10
      vertex 6.69131 7.43145 10
    endloop
  endfacet
  facet normal 0.587785 0.809017 0
    outer loop
      vertex 5 8.66025 -10
      vertex 5 8.66025 10
      vertex 6.69131 7.43145 -10
    endloop
  endfacet
  facet normal 0.587785 0.809017 0
    outer loop
      vertex 6.69131 7.43145 -10
      vertex 5 8.66025 10
      vertex 6.69131 7.43145 10
    endloop
  endfacet
  facet normal 0.406737 0.913545 0
    outer loop
      vertex 3.09017 9.51056 -10
      vertex 3.09017 9.51056 10
      vertex 5 8.66025 -10
    endloop
  endfacet
  facet normal 0.406737 0.913545 0
    outer loop
      vertex 5 8.66025 -10
      vertex 3.09017 9.51056 10
      vertex 5 8.66025 10
    endloop
  endfacet
  facet normal 0.207912 0.978148 0
    outer loop
      vertex 1.04529 9.94522 -10
      vertex 1.04529 9.94522 10
      vertex 3.09017 9.51056 -10
    endloop
  endfacet
  facet normal 0.207912 0.978148 0
    outer loop
      vertex 3.09017 9.51056 -10
      vertex 1.04529 9.94522 10
      vertex 3.09017 9.51056 10
    endloop
  endfacet
  facet normal 0 1 0
    outer loop
      vertex -1.04529 9.94522 -10
      vertex -1.04529 9.94522 10
      vertex 1.04529 9.94522 -10
    endloop
  endfacet
  facet normal 0 1 0
    outer loop
      vertex 1.04529 9.94522 -10
      vertex -1.04529 9.94522 10
      vertex 1.04529 9.94522 10
    endloop
  endfacet
  facet normal -0.207912 0.978148 0
    outer loop
      vertex -3.09017 9.51056 -10
      vertex -3.09017 9.51056 10
      vertex -1.04529 9.94522 -10
    endloop
  endfacet
  facet normal -0.207912 0.978148 0
    outer loop
      vertex -1.04529 9.94522 -10
      vertex -3.09017 9.51056 10
      vertex -1.04529 9.94522 10
    endloop
  endfacet
  facet normal -0.406737 0.913545 0
    outer loop
      vertex -5 8.66025 -10
      vertex -5 8.66025 10
      vertex -3.09017 9.51056 -10
    endloop
  endfacet
  facet normal -0.406737 0.913545 0
    outer loop
      vertex -3.09017 9.51056 -10
      vertex -5 8.66025 10
      vertex -3.09017 9.51056 10
    endloop
  endfacet
  facet normal -0.587785 0.809017 0
    outer loop
      vertex -6.69131 7.43145 -10
      vertex -6.69131 7.43145 10
      vertex -5 8.66025 -10
    endloop
  endfacet
  facet normal -0.587785 0.809017 0
    outer loop
      vertex -5 8.66025 -10
      vertex -6.69131 7.43145 10
      vertex -5 8.66025 10
    endloop
  endfacet
  facet normal -0.743145 0.669131 0
    outer loop
      vertex -8.09017 5.87785 -10
      vertex -8.09017 5.87785 10
      vertex -6.69131 7.43145 -10
    endloop
  endfacet
  facet normal -0.743145 0.669131 0
    outer loop
      vertex -6.69131 7.43145 -10
      vertex -8.09017 5.87785 10
      vertex -6.69131 7.43145 10
    endloop
  endfacet
  facet normal -0.866025 0.5 0
    outer loop
      vertex -9.13546 4.06737 -10
      vertex -9.13546 4.06737 10
      vertex -8.09017 5.87785 -10
    endloop
  endfacet
  facet normal -0.866025 0.5 0
    outer loop
      vertex -8.09017 5.87785 -10
      vertex -9.13546 4.06737 10
      vertex -8.09017 5.87785 10
    endloop
  endfacet
  facet normal -0.951057 0.309017 0
    outer loop
      vertex -9.78148 2.07912 -10
      vertex -9.78148 2.07912 10
      vertex -9.13546 4.06737 -10
    endloop
  endfacet
  facet normal -0.951057 0.309017 0
    outer loop
      vertex -9.13546 4.06737 -10
      vertex -9.78148 2.07912 10
      vertex -9.13546 4.06737 10
    endloop
  endfacet
  facet normal 0.994522 0.104529 0
    outer loop
      vertex -9.47372 -0.25 10
      vertex -9.2924 -1.97516 10
      vertex -9.2924 -1.97516 -10
    endloop
  endfacet
  facet normal 0.994522 0.104529 0
    outer loop
      vertex -9.47372 -0.25 -10
      vertex -9.47372 -0.25 10
      vertex -9.2924 -1.97516 -10
    endloop
  endfacet
  facet normal 0 -1 0
    outer loop
      vertex -9.47372 -0.25 10
      vertex -9.47372 -0.25 -10
      vertex -3.19831 -0.25 -10
    endloop
  endfacet
  facet normal 0 -1 0
    outer loop
      vertex -3.19831 -0.25 10
      vertex -9.47372 -0.25 10
      vertex -3.19831 -0.25 -10
    endloop
  endfacet
  facet normal -1 0 0
    outer loop
      vertex -3.19831 -0.939109 -10
      vertex -3.19831 -0.939109 10
      vertex -3.19831 -0.25 -10
    endloop
  endfacet
  facet normal -1 0 0
    outer loop
      vertex -3.19831 -0.25 -10
      vertex -3.19831 -0.939109 10
      vertex -3.19831 -0.25 10
    endloop
  endfacet
  facet normal -0.841253 -0.540641 0
    outer loop
      vertex -3.19831 -0.939109 -10
      vertex -2.18287 -2.51917 -10
      vertex -3.19831 -0.939109 10
    endloop
  endfacet
  facet normal -0.841253 -0.540641 0
    outer loop
      vertex -3.19831 -0.939109 10
      vertex -2.18287 -2.51917 -10
      vertex -2.18287 -2.51917 10
    endloop
  endfacet
  facet normal -0.415415 -0.909632 0
    outer loop
      vertex -2.18287 -2.51917 10
      vertex -2.18287 -2.51917 -10
      vertex -0.474383 -3.2994 -10
    endloop
  endfacet
  facet normal -0.415415 -0.909632 0
    outer loop
      vertex -0.474383 -3.2994 10
      vertex -2.18287 -2.51917 10
      vertex -0.474383 -3.2994 -10
    endloop
  endfacet
  facet normal 0.142315 -0.989821 0
    outer loop
      vertex -0.474383 -3.2994 10
      vertex -0.474383 -3.2994 -10
      vertex -0.25 -3.26714 -10
    endloop
  endfacet
  facet normal 0.142315 -0.989821 0
    outer loop
      vertex -0.25 -3.26714 10
      vertex -0.474383 -3.2994 10
      vertex -0.25 -3.26714 -10
    endloop
  endfacet
  facet normal -1 0 0
    outer loop
      vertex -0.25 -9.44796 -10
      vertex -0.25 -9.44796 10
      vertex -0.25 -3.26714 -10
    endloop
  endfacet
  facet normal -1 0 0
    outer loop
      vertex -0.25 -3.26714 -10
      vertex -0.25 -9.44796 10
      vertex -0.25 -3.26714 10
    endloop
  endfacet
  facet normal 0 1 0
    outer loop
      vertex -0.25 -9.44796 10
      vertex -0.25 -9.44796 -10
      vertex -0.99302 -9.44796 10
    endloop
  endfacet
  facet normal 0 1 0
    outer loop
      vertex -0.99302 -9.44796 10
      vertex -0.25 -9.44796 -10
      vertex -0.99302 -9.44796 -10
    endloop
  endfacet
  facet normal 0.207912 0.978148 0
    outer loop
      vertex -0.99302 -9.44796 10
      vertex -0.99302 -9.44796 -10
      vertex -2.93566 -9.03504 10
    endloop
  endfacet
  facet normal 0.207912 0.978148 0
    outer loop
      vertex -2.93566 -9.03504 10
      vertex -0.99302 -9.44796 -10
      vertex -2.93566 -9.03504 -10
    endloop
  endfacet
  facet normal 0.406737 0.913545 0
    outer loop
      vertex -2.93566 -9.03504 10
      vertex -2.93566 -9.03504 -10
      vertex -4.75 -8.22724 10
    endloop
  endfacet
  facet normal 0.406737 0.913545 0
    outer loop
      vertex -4.75 -8.22724 10
      vertex -2.93566 -9.03504 -10
      vertex -4.75 -8.22724 -10
    endloop
  endfacet
  facet normal 0.587785 0.809017 0
    outer loop
      vertex -4.75 -8.22724 10
      vertex -4.75 -8.22724 -10
      vertex -6.35674 -7.05988 10
    endloop
  endfacet
  facet normal 0.587785 0.809017 0
    outer loop
      vertex -6.35674 -7.05988 10
      vertex -4.75 -8.22724 -10
      vertex -6.35674 -7.05988 -10
    endloop
  endfacet
  facet normal 0.743145 0.66913 0
    outer loop
      vertex -7.68566 -5.58396 10
      vertex -6.35674 -7.05988 10
      vertex -6.35674 -7.05988 -10
    endloop
  endfacet
  facet normal 0.743145 0.66913 0
    outer loop
      vertex -7.68566 -5.58396 -10
      vertex -7.68566 -5.58396 10
      vertex -6.35674 -7.05988 -10
    endloop
  endfacet
  facet normal 0.866025 0.5 0
    outer loop
      vertex -8.67868 -3.864 10
      vertex -7.68566 -5.58396 10
      vertex -7.68566 -5.58396 -10
    endloop
  endfacet
  facet normal 0.866025 0.5 0
    outer loop
      vertex -8.67868 -3.864 -10
      vertex -8.67868 -3.864 10
      vertex -7.68566 -5.58396 -10
    endloop
  endfacet
  facet normal 0.951057 0.309017 0
    outer loop
      vertex -9.2924 -1.97516 10
      vertex -8.67868 -3.864 10
      vertex -8.67868 -3.864 -10
    endloop
  endfacet
  facet normal 0.951057 0.309017 0
    outer loop
      vertex -9.2924 -1.97516 -10
      vertex -9.2924 -1.97516 10
      vertex -8.67868 -3.864 -10
    endloop
  endfacet
  facet normal 0.951057 -0.309017 0
    outer loop
      vertex -8.67868 3.864 -10
      vertex -8.67868 3.864 10
      vertex -9.2924 1.97516 10
    endloop
  endfacet
  facet normal 0.951057 -0.309017 0
    outer loop
      vertex -9.2924 1.97516 -10
      vertex -8.67868 3.864 -10
      vertex -9.2924 1.97516 10
    endloop
  endfacet
  facet normal 0.994522 -0.104529 0
    outer loop
      vertex -9.2924 1.97516 -10
      vertex -9.2924 1.97516 10
      vertex -9.47372 0.25 10
    endloop
  endfacet
  facet normal 0.994522 -0.104529 0
    outer loop
      vertex -9.47372 0.25 -10
      vertex -9.2924 1.97516 -10
      vertex -9.47372 0.25 10
    endloop
  endfacet
  facet normal 0.866025 -0.5 0
    outer loop
      vertex -7.68566 5.58396 -10
      vertex -7.68566 5.58396 10
      vertex -8.67868 3.864 10
    endloop
  endfacet
  facet normal 0.866025 -0.5 0
    outer loop
      vertex -8.67868 3.864 -10
      vertex -7.68566 5.58396 -10
      vertex -8.67868 3.864 10
    endloop
  endfacet
  facet normal 0.743145 -0.66913 0
    outer loop
      vertex -6.35674 7.05988 -10
      vertex -6.35674 7.05988 10
      vertex -7.68566 5.58396 10
    endloop
  endfacet
  facet normal 0.743145 -0.66913 0
    outer loop
      vertex -7.68566 5.58396 -10
      vertex -6.35674 7.05988 -10
      vertex -7.68566 5.58396 10
    endloop
  endfacet
  facet normal 0.587785 -0.809017 0
    outer loop
      vertex -4.75 8.22724 -10
      vertex -4.75 8.22724 10
      vertex -6.35674 7.05988 10
    endloop
  endfacet
  facet normal 0.587785 -0.809017 0
    outer loop
      vertex -6.35674 7.05988 -10
      vertex -4.75 8.22724 -10
      vertex -6.35674 7.05988 10
    endloop
  endfacet
  facet normal 0.406737 -0.913545 0
    outer loop
      vertex -2.93566 9.03504 -10
      vertex -2.93566 9.03504 10
      vertex -4.75 8.22724 10
    endloop
  endfacet
  facet normal 0.406737 -0.913545 0
    outer loop
      vertex -4.75 8.22724 -10
      vertex -2.93566 9.03504 -10
      vertex -4.75 8.22724 10
    endloop
  endfacet
  facet normal 0.207912 -0.978148 0
    outer loop
      vertex -0.99302 9.44796 -10
      vertex -0.99302 9.44796 10
      vertex -2.93566 9.03504 10
    endloop
  endfacet
  facet normal 0.207912 -0.978148 0
    outer loop
      vertex -2.93566 9.03504 -10
      vertex -0.99302 9.44796 -10
      vertex -2.93566 9.03504 10
    endloop
  endfacet
  facet normal 0 -1 0
    outer loop
      vertex -0.25 9.44796 -10
      vertex -0.25 9.44796 10
      vertex -0.99302 9.44796 10
    endloop
  endfacet
  facet normal 0 -1 0
    outer loop
      vertex -0.99302 9.44796 -10
      vertex -0.25 9.44796 -10
      vertex -0.99302 9.44796 10
    endloop
  endfacet
  facet normal -1 0 0
    outer loop
      vertex -0.25 3.26714 -10
      vertex -0.25 3.26714 10
      vertex -0.25 9.44796 -10
    endloop
  endfacet
  facet normal -1 0 0
    outer loop
      vertex -0.25 9.44796 -10
      vertex -0.25 3.26714 10
      vertex -0.25 9.44796 10
    endloop
  endfacet
  facet normal 0.142315 0.989821 0
    outer loop
      vertex -0.474383 3.2994 -10
      vertex -0.474383 3.2994 10
      vertex -0.25 3.26714 -10
    endloop
  endfacet
  facet normal 0.142315 0.989821 0
    outer loop
      vertex -0.25 3.26714 -10
      vertex -0.474383 3.2994 10
      vertex -0.25 3.26714 10
    endloop
  endfacet
  facet normal -0.415415 0.909632 0
    outer loop
      vertex -2.18287 2.51917 -10
      vertex -2.18287 2.51917 10
      vertex -0.474383 3.2994 -10
    endloop
  endfacet
  facet normal -0.415415 0.909632 0
    outer loop
      vertex -0.474383 3.2994 -10
      vertex -2.18287 2.51917 10
      vertex -0.474383 3.2994 10
    endloop
  endfacet
  facet normal -0.841253 0.540641 0
    outer loop
      vertex -3.19831 0.939109 -10
      vertex -3.19831 0.939109 10
      vertex -2.18287 2.51917 -10
    endloop
  endfacet
  facet normal -0.841253 0.540641 0
    outer loop
      vertex -2.18287 2.51917 -10
      vertex -3.19831 0.939109 10
      vertex -2.18287 2.51917 10
    endloop
  endfacet
  facet normal -1 0 0
    outer loop
      vertex -3.19831 0.25 -10
      vertex -3.19831 0.25 10
      vertex -3.19831 0.939109 -10
    endloop
  endfacet
  facet normal -1 0 0
    outer loop
      vertex -3.19831 0.939109 -10
      vertex -3.19831 0.25 10
      vertex -3.19831 0.939109 10
    endloop
  endfacet
  facet normal 0 1 0
    outer loop
      vertex -9.47372 0.25 -10
      vertex -9.47372 0.25 10
      vertex -3.19831 0.25 -10
    endloop
  endfacet
  facet normal 0 1 0
    outer loop
      vertex -3.19831 0.25 -10
      vertex -9.47372 0.25 10
      vertex -3.19831 0.25 10
    endloop
  endfacet
  facet normal 1 0 0
    outer loop
      vertex 0.25 -9.44796 10
      vertex 0.25 -9.44796 -10
      vertex 0.25 -3.19525 -10
    endloop
  endfacet
  facet normal 1 0 0
    outer loop
      vertex 0.25 -3.19525 10
      vertex 0.25 -9.44796 10
      vertex 0.25 -3.19525 -10
    endloop
  endfacet
  facet normal 0.142315 -0.989821 0
    outer loop
      vertex 0.25 -3.19525 10
      vertex 0.25 -3.19525 -10
      vertex 1.38472 -3.03211 -10
    endloop
  endfacet
  facet normal 0.142315 -0.989821 0
    outer loop
      vertex 1.38472 -3.03211 10
      vertex 0.25 -3.19525 10
      vertex 1.38472 -3.03211 -10
    endloop
  endfacet
  facet normal 0.654861 -0.755749 0
    outer loop
      vertex 1.38472 -3.03211 10
      vertex 1.38472 -3.03211 -10
      vertex 2.80418 -1.80214 -10
    endloop
  endfacet
  facet normal 0.654861 -0.755749 0
    outer loop
      vertex 2.80418 -1.80214 10
      vertex 1.38472 -3.03211 10
      vertex 2.80418 -1.80214 -10
    endloop
  endfacet
  facet normal 0.959493 -0.281733 0
    outer loop
      vertex 2.80418 -1.80214 10
      vertex 2.80418 -1.80214 -10
      vertex 3.25993 -0.25 -10
    endloop
  endfacet
  facet normal 0.959493 -0.281733 0
    outer loop
      vertex 3.25993 -0.25 10
      vertex 2.80418 -1.80214 10
      vertex 3.25993 -0.25 -10
    endloop
  endfacet
  facet normal 0 -1 0
    outer loop
      vertex 3.25993 -0.25 10
      vertex 3.25993 -0.25 -10
      vertex 9.47372 -0.25 -10
    endloop
  endfacet
  facet normal 0 -1 0
    outer loop
      vertex 9.47372 -0.25 10
      vertex 3.25993 -0.25 10
      vertex 9.47372 -0.25 -10
    endloop
  endfacet
  facet normal -0.994522 0.104529 0
    outer loop
      vertex 9.47372 -0.25 10
      vertex 9.47372 -0.25 -10
      vertex 9.2924 -1.97516 10
    endloop
  endfacet
  facet normal -0.994522 0.104529 0
    outer loop
      vertex 9.2924 -1.97516 10
      vertex 9.47372 -0.25 -10
      vertex 9.2924 -1.97516 -10
    endloop
  endfacet
  facet normal -0.951057 0.309017 0
    outer loop
      vertex 9.2924 -1.97516 10
      vertex 9.2924 -1.97516 -10
      vertex 8.67868 -3.864 10
    endloop
  endfacet
  facet normal -0.951057 0.309017 0
    outer loop
      vertex 8.67868 -3.864 10
      vertex 9.2924 -1.97516 -10
      vertex 8.67868 -3.864 -10
    endloop
  endfacet
  facet normal -0.866025 0.5 0
    outer loop
      vertex 8.67868 -3.864 10
      vertex 8.67868 -3.864 -10
      vertex 7.68566 -5.58396 10
    endloop
  endfacet
  facet normal -0.866025 0.5 0
    outer loop
      vertex 7.68566 -5.58396 10
      vertex 8.67868 -3.864 -10
      vertex 7.68566 -5.58396 -10
    endloop
  endfacet
  facet normal -0.743145 0.66913 0
    outer loop
      vertex 7.68566 -5.58396 10
      vertex 7.68566 -5.58396 -10
      vertex 6.35674 -7.05988 10
    endloop
  endfacet
  facet normal -0.743145 0.66913 0
    outer loop
      vertex 6.35674 -7.05988 10
      vertex 7.68566 -5.58396 -10
      vertex 6.35674 -7.05988 -10
    endloop
  endfacet
  facet normal -0.587785 0.809017 0
    outer loop
      vertex 6.35674 -7.05988 10
      vertex 6.35674 -7.05988 -10
      vertex 4.75 -8.22724 10
    endloop
  endfacet
  facet normal -0.587785 0.809017 0
    outer loop
      vertex 4.75 -8.22724 10
      vertex 6.35674 -7.05988 -10
      vertex 4.75 -8.22724 -10
    endloop
  endfacet
  facet normal -0.406737 0.913545 0
    outer loop
      vertex 4.75 -8.22724 10
      vertex 4.75 -8.22724 -10
      vertex 2.93566 -9.03504 10
    endloop
  endfacet
  facet normal -0.406737 0.913545 0
    outer loop
      vertex 2.93566 -9.03504 10
      vertex 4.75 -8.22724 -10
      vertex 2.93566 -9.03504 -10
    endloop
  endfacet
  facet normal -0.207912 0.978148 0
    outer loop
      vertex 2.93566 -9.03504 10
      vertex 2.93566 -9.03504 -10
      vertex 0.99302 -9.44796 10
    endloop
  endfacet
  facet normal -0.207912 0.978148 0
    outer loop
      vertex 0.99302 -9.44796 10
      vertex 2.93566 -9.03504 -10
      vertex 0.99302 -9.44796 -10
    endloop
  endfacet
  facet normal 0 1 0
    outer loop
      vertex 0.99302 -9.44796 10
      vertex 0.99302 -9.44796 -10
      vertex 0.25 -9.44796 10
    endloop
  endfacet
  facet normal 0 1 0
    outer loop
      vertex 0.25 -9.44796 10
      vertex 0.99302 -9.44796 -10
      vertex 0.25 -9.44796 -10
    endloop
  endfacet
  facet normal 1 0 0
    outer loop
      vertex 0.25 3.19525 10
      vertex 0.25 3.19525 -10
      vertex 0.25 9.44796 -10
    endloop
  endfacet
  facet normal 1 0 0
    outer loop
      vertex 0.25 9.44796 10
      vertex 0.25 3.19525 10
      vertex 0.25 9.44796 -10
    endloop
  endfacet
  facet normal 0 -1 0
    outer loop
      vertex 0.99302 9.44796 -10
      vertex 0.99302 9.44796 10
      vertex 0.25 9.44796 10
    endloop
  endfacet
  facet normal 0 -1 0
    outer loop
      vertex 0.25 9.44796 -10
      vertex 0.99302 9.44796 -10
      vertex 0.25 9.44796 10
    endloop
  endfacet
  facet normal -0.207912 -0.978148 0
    outer loop
      vertex 2.93566 9.03504 -10
      vertex 2.93566 9.03504 10
      vertex 0.99302 9.44796 10
    endloop
  endfacet
  facet normal -0.207912 -0.978148 0
    outer loop
      vertex 0.99302 9.44796 -10
      vertex 2.93566 9.03504 -10
      vertex 0.99302 9.44796 10
    endloop
  endfacet
  facet normal -0.406737 -0.913545 0
    outer loop
      vertex 4.75 8.22724 -10
      vertex 4.75 8.22724 10
      vertex 2.93566 9.03504 10
    endloop
  endfacet
  facet normal -0.406737 -0.913545 0
    outer loop
      vertex 2.93566 9.03504 -10
      vertex 4.75 8.22724 -10
      vertex 2.93566 9.03504 10
    endloop
  endfacet
  facet normal -0.587785 -0.809017 0
    outer loop
      vertex 6.35674 7.05988 -10
      vertex 6.35674 7.05988 10
      vertex 4.75 8.22724 10
    endloop
  endfacet
  facet normal -0.587785 -0.809017 0
    outer loop
      vertex 4.75 8.22724 -10
      vertex 6.35674 7.05988 -10
      vertex 4.75 8.22724 10
    endloop
  endfacet
  facet normal -0.743145 -0.66913 0
    outer loop
      vertex 7.68566 5.58396 10
      vertex 6.35674 7.05988 10
      vertex 7.68566 5.58396 -10
    endloop
  endfacet
  facet normal -0.743145 -0.66913 0
    outer loop
      vertex 7.68566 5.58396 -10
      vertex 6.35674 7.05988 10
      vertex 6.35674 7.05988 -10
    endloop
  endfacet
  facet normal -0.866025 -0.5 0
    outer loop
      vertex 8.67868 3.864 10
      vertex 7.68566 5.58396 10
      vertex 8.67868 3.864 -10
    endloop
  endfacet
  facet normal -0.866025 -0.5 0
    outer loop
      vertex 8.67868 3.864 -10
      vertex 7.68566 5.58396 10
      vertex 7.68566 5.58396 -10
    endloop
  endfacet
  facet normal -0.951057 -0.309017 0
    outer loop
      vertex 9.2924 1.97516 10
      vertex 8.67868 3.864 10
      vertex 9.2924 1.97516 -10
    endloop
  endfacet
  facet normal -0.951057 -0.309017 0
    outer loop
      vertex 9.2924 1.97516 -10
      vertex 8.67868 3.864 10
      vertex 8.67868 3.864 -10
    endloop
  endfacet
  facet normal -0.994522 -0.104529 0
    outer loop
      vertex 9.47372 0.25 10
      vertex 9.2924 1.97516 10
      vertex 9.47372 0.25 -10
    endloop
  endfacet
  facet normal -0.994522 -0.104529 0
    outer loop
      vertex 9.47372 0.25 -10
      vertex 9.2924 1.97516 10
      vertex 9.2924 1.97516 -10
    endloop
  endfacet
  facet normal 0 1 0
    outer loop
      vertex 3.25993 0.25 -10
      vertex 3.25993 0.25 10
      vertex 9.47372 0.25 -10
    endloop
  endfacet
  facet normal 0 1 0
    outer loop
      vertex 9.47372 0.25 -10
      vertex 3.25993 0.25 10
      vertex 9.47372 0.25 10
    endloop
  endfacet
  facet normal 0.959493 0.281733 0
    outer loop
      vertex 3.25993 0.25 -10
      vertex 2.80418 1.80214 -10
      vertex 2.80418 1.80214 10
    endloop
  endfacet
  facet normal 0.959493 0.281733 0
    outer loop
      vertex 3.25993 0.25 10
      vertex 3.25993 0.25 -10
      vertex 2.80418 1.80214 10
    endloop
  endfacet
  facet normal 0.654861 0.755749 0
    outer loop
      vertex 1.38472 3.03211 -10
      vertex 1.38472 3.03211 10
      vertex 2.80418 1.80214 -10
    endloop
  endfacet
  facet normal 0.654861 0.755749 0
    outer loop
      vertex 2.80418 1.80214 -10
      vertex 1.38472 3.03211 10
      vertex 2.80418 1.80214 10
    endloop
  endfacet
  facet normal 0.142315 0.989821 0
    outer loop
      vertex 0.25 3.19525 -10
      vertex 0.25 3.19525 10
      vertex 1.38472 3.03211 -10
    endloop
  endfacet
  facet normal 0.142315 0.989821 0
    outer loop
      vertex 1.38472 3.03211 -10
      vertex 0.25 3.19525 10
      vertex 1.38472 3.03211 10
    endloop
  endfacet
  facet normal 0 0 1
    outer loop
      vertex -9.78148 2.07912 10
      vertex -10 0 10
      vertex -9.78148 -2.07912 10
    endloop
  endfacet
  facet normal 0 0 1
    outer loop
      vertex -9.2924 -1.97516 10
      vertex -9.78148 2.07912 10
      vertex -9.13546 -4.06737 10
    endloop
  endfacet
  facet normal 0 0 1
    outer loop
      vertex -9.13546 -4.06737 10
      vertex -9.78148 2.07912 10
      vertex -9.78148 -2.07912 10
    endloop
  endfacet
  facet normal 0 0 1
    outer loop
      vertex 3.25993 0.25 10
      vertex -2.18287 2.51917 10
      vertex -3.19831 0.939109 10
    endloop
  endfacet
  facet normal 0 0 1
    outer loop
      vertex 7.68566 -5.58396 10
      vertex 6.35674 -7.05988 10
      vertex 8.09017 -5.87785 10
    endloop
  endfacet
  facet normal 0 0 1
    outer loop
      vertex 0.25 3.19525 10
      vertex -2.18287 2.51917 10
      vertex 1.38472 3.03211 10
    endloop
  endfacet
  facet normal 0 0 1
    outer loop
      vertex -0.474383 3.2994 10
      vertex -2.18287 2.51917 10
      vertex -0.25 3.26714 10
    endloop
  endfacet
  facet normal 0 0 1
    outer loop
      vertex -0.25 -3.26714 10
      vertex -0.25 -9.44796 10
      vertex 0.25 -9.44796 10
    endloop
  endfacet
  facet normal 0 0 1
    outer loop
      vertex 2.93566 -9.03504 10
      vertex 0.99302 -9.44796 10
      vertex 3.09017 -9.51056 10
    endloop
  endfacet
  facet normal 0 0 1
    outer loop
      vertex 1.38472 -3.03211 10
      vertex 2.80418 -1.80214 10
      vertex -3.19831 0.25 10
    endloop
  endfacet
  facet normal 0 0 1
    outer loop
      vertex 0.25 9.44796 10
      vertex 0.99302 9.44796 10
      vertex 1.04529 9.94522 10
    endloop
  endfacet
  facet normal 0 0 1
    outer loop
      vertex -8.09017 5.87785 10
      vertex -9.78148 2.07912 10
      vertex -6.69131 7.43145 10
    endloop
  endfacet
  facet normal 0 0 1
    outer loop
      vertex -9.13546 4.06737 10
      vertex -9.78148 2.07912 10
      vertex -8.09017 5.87785 10
    endloop
  endfacet
  facet normal 0 0 1
    outer loop
      vertex -8.09017 -5.87785 10
      vertex -9.2924 -1.97516 10
      vertex -9.13546 -4.06737 10
    endloop
  endfacet
  facet normal 0 0 1
    outer loop
      vertex -9.47372 -0.25 10
      vertex -9.78148 2.07912 10
      vertex -9.2924 -1.97516 10
    endloop
  endfacet
  facet normal 0 0 1
    outer loop
      vertex -9.47372 0.25 10
      vertex -9.78148 2.07912 10
      vertex -9.47372 -0.25 10
    endloop
  endfacet
  facet normal 0 0 1
    outer loop
      vertex 2.80418 -1.80214 10
      vertex -3.19831 0.939109 10
      vertex -3.19831 0.25 10
    endloop
  endfacet
  facet normal 0 0 1
    outer loop
      vertex -2.93566 9.03504 10
      vertex -0.99302 9.44796 10
      vertex -1.04529 9.94522 10
    endloop
  endfacet
  facet normal 0 0 1
    outer loop
      vertex 1.38472 -3.03211 10
      vertex -3.19831 0.25 10
      vertex -3.19831 -0.25 10
    endloop
  endfacet
  facet normal 0 0 1
    outer loop
      vertex 0.25 3.19525 10
      vertex -0.25 9.44796 10
      vertex -0.25 3.26714 10
    endloop
  endfacet
  facet normal 0 0 1
    outer loop
      vertex 1.38472 -3.03211 10
      vertex -3.19831 -0.25 10
      vertex -3.19831 -0.939109 10
    endloop
  endfacet
  facet normal 0 0 1
    outer loop
      vertex 6.35674 7.05988 10
      vertex 7.68566 5.58396 10
      vertex 8.09017 5.87785 10
    endloop
  endfacet
  facet normal 0 0 1
    outer loop
      vertex 1.04529 -9.94522 10
      vertex -0.25 -9.44796 10
      vertex -1.04529 -9.94522 10
    endloop
  endfacet
  facet normal 0 0 1
    outer loop
      vertex -0.25 -9.44796 10
      vertex -0.99302 -9.44796 10
      vertex -1.04529 -9.94522 10
    endloop
  endfacet
  facet normal 0 0 1
    outer loop
      vertex 4.75 8.22724 10
      vertex 6.35674 7.05988 10
      vertex 6.69131 7.43145 10
    endloop
  endfacet
  facet normal 0 0 1
    outer loop
      vertex -1.04529 -9.94522 10
      vertex -2.93566 -9.03504 10
      vertex -3.09017 -9.51056 10
    endloop
  endfacet
  facet normal 0 0 1
    outer loop
      vertex -0.25 3.26714 10
      vertex -2.18287 2.51917 10
      vertex 0.25 3.19525 10
    endloop
  endfacet
  facet normal 0 0 1
    outer loop
      vertex -3.09017 -9.51056 10
      vertex -4.75 -8.22724 10
      vertex -5 -8.66025 10
    endloop
  endfacet
  facet normal 0 0 1
    outer loop
      vertex -5 -8.66025 10
      vertex -6.35674 -7.05988 10
      vertex -6.69131 -7.43145 10
    endloop
  endfacet
  facet normal 0 0 1
    outer loop
      vertex 9.47372 0.25 10
      vertex 3.25993 0.25 10
      vertex 10 0 10
    endloop
  endfacet
  facet normal 0 0 1
    outer loop
      vertex -6.69131 -7.43145 10
      vertex -7.68566 -5.58396 10
      vertex -8.09017 -5.87785 10
    endloop
  endfacet
  facet normal 0 0 1
    outer loop
      vertex -8.09017 -5.87785 10
      vertex -8.67868 -3.864 10
      vertex -9.2924 -1.97516 10
    endloop
  endfacet
  facet normal 0 0 1
    outer loop
      vertex -9.47372 0.25 10
      vertex -9.2924 1.97516 10
      vertex -9.78148 2.07912 10
    endloop
  endfacet
  facet normal 0 0 1
    outer loop
      vertex -4.75 8.22724 10
      vertex -2.93566 9.03504 10
      vertex -3.09017 9.51056 10
    endloop
  endfacet
  facet normal 0 0 1
    outer loop
      vertex -6.69131 7.43145 10
      vertex -9.78148 2.07912 10
      vertex -8.67868 3.864 10
    endloop
  endfacet
  facet normal 0 0 1
    outer loop
      vertex -6.69131 7.43145 10
      vertex -7.68566 5.58396 10
      vertex -5 8.66025 10
    endloop
  endfacet
  facet normal 0 0 1
    outer loop
      vertex -6.69131 7.43145 10
      vertex -8.67868 3.864 10
      vertex -7.68566 5.58396 10
    endloop
  endfacet
  facet normal 0 0 1
    outer loop
      vertex -7.68566 5.58396 10
      vertex -6.35674 7.05988 10
      vertex -5 8.66025 10
    endloop
  endfacet
  facet normal 0 0 1
    outer loop
      vertex -5 8.66025 10
      vertex -4.75 8.22724 10
      vertex -3.09017 9.51056 10
    endloop
  endfacet
  facet normal 0 0 1
    outer loop
      vertex -6.35674 7.05988 10
      vertex -4.75 8.22724 10
      vertex -5 8.66025 10
    endloop
  endfacet
  facet normal 0 0 1
    outer loop
      vertex -3.09017 9.51056 10
      vertex -2.93566 9.03504 10
      vertex -1.04529 9.94522 10
    endloop
  endfacet
  facet normal 0 0 1
    outer loop
      vertex 0.99302 9.44796 10
      vertex 2.93566 9.03504 10
      vertex 3.09017 9.51056 10
    endloop
  endfacet
  facet normal 0 0 1
    outer loop
      vertex -1.04529 9.94522 10
      vertex -0.99302 9.44796 10
      vertex 1.04529 9.94522 10
    endloop
  endfacet
  facet normal 0 0 1
    outer loop
      vertex -0.99302 9.44796 10
      vertex -0.25 9.44796 10
      vertex 1.04529 9.94522 10
    endloop
  endfacet
  facet normal 0 0 1
    outer loop
      vertex 2.93566 9.03504 10
      vertex 4.75 8.22724 10
      vertex 5 8.66025 10
    endloop
  endfacet
  facet normal 0 0 1
    outer loop
      vertex 1.04529 -9.94522 10
      vertex 0.25 -9.44796 10
      vertex -0.25 -9.44796 10
    endloop
  endfacet
  facet normal 0 0 1
    outer loop
      vertex -0.25 -3.26714 10
      vertex 0.25 -3.19525 10
      vertex -3.19831 -0.939109 10
    endloop
  endfacet
  facet normal 0 0 1
    outer loop
      vertex 4.75 -8.22724 10
      vertex 2.93566 -9.03504 10
      vertex 5 -8.66025 10
    endloop
  endfacet
  facet normal 0 0 1
    outer loop
      vertex 1.38472 -3.03211 10
      vertex -3.19831 -0.939109 10
      vertex 0.25 -3.19525 10
    endloop
  endfacet
  facet normal 0 0 1
    outer loop
      vertex 6.35674 -7.05988 10
      vertex 4.75 -8.22724 10
      vertex 6.69131 -7.43145 10
    endloop
  endfacet
  facet normal 0 0 1
    outer loop
      vertex 9.2924 -1.97516 10
      vertex 8.67868 -3.864 10
      vertex 9.78148 -2.07912 10
    endloop
  endfacet
  facet normal 0 0 1
    outer loop
      vertex 3.25993 0.25 10
      vertex -3.19831 0.939109 10
      vertex 3.25993 -0.25 10
    endloop
  endfacet
  facet normal 0 0 1
    outer loop
      vertex 10 0 10
      vertex 9.47372 -0.25 10
      vertex 9.78148 -2.07912 10
    endloop
  endfacet
  facet normal 0 0 1
    outer loop
      vertex 10 0 10
      vertex 3.25993 -0.25 10
      vertex 9.47372 -0.25 10
    endloop
  endfacet
  facet normal 0 0 1
    outer loop
      vertex 9.47372 -0.25 10
      vertex 9.2924 -1.97516 10
      vertex 9.78148 -2.07912 10
    endloop
  endfacet
  facet normal 0 0 1
    outer loop
      vertex 9.78148 -2.07912 10
      vertex 8.67868 -3.864 10
      vertex 9.13546 -4.06737 10
    endloop
  endfacet
  facet normal 0 0 1
    outer loop
      vertex 9.13546 -4.06737 10
      vertex 7.68566 -5.58396 10
      vertex 8.09017 -5.87785 10
    endloop
  endfacet
  facet normal 0 0 1
    outer loop
      vertex 8.09017 -5.87785 10
      vertex 6.35674 -7.05988 10
      vertex 6.69131 -7.43145 10
    endloop
  endfacet
  facet normal 0 0 1
    outer loop
      vertex 6.69131 -7.43145 10
      vertex 4.75 -8.22724 10
      vertex 5 -8.66025 10
    endloop
  endfacet
  facet normal 0 0 1
    outer loop
      vertex 0.25 3.19525 10
      vertex 0.25 9.44796 10
      vertex -0.25 9.44796 10
    endloop
  endfacet
  facet normal 0 0 1
    outer loop
      vertex 5 -8.66025 10
      vertex 2.93566 -9.03504 10
      vertex 3.09017 -9.51056 10
    endloop
  endfacet
  facet normal 0 0 1
    outer loop
      vertex 3.09017 -9.51056 10
      vertex 0.99302 -9.44796 10
      vertex 1.04529 -9.94522 10
    endloop
  endfacet
  facet normal 0 0 1
    outer loop
      vertex -0.25 9.44796 10
      vertex 0.25 9.44796 10
      vertex 1.04529 9.94522 10
    endloop
  endfacet
  facet normal 0 0 1
    outer loop
      vertex 1.04529 9.94522 10
      vertex 0.99302 9.44796 10
      vertex 3.09017 9.51056 10
    endloop
  endfacet
  facet normal 0 0 1
    outer loop
      vertex 7.68566 5.58396 10
      vertex 8.67868 3.864 10
      vertex 9.13546 4.06737 10
    endloop
  endfacet
  facet normal 0 0 1
    outer loop
      vertex 3.09017 9.51056 10
      vertex 2.93566 9.03504 10
      vertex 5 8.66025 10
    endloop
  endfacet
  facet normal 0 0 1
    outer loop
      vertex 5 8.66025 10
      vertex 4.75 8.22724 10
      vertex 6.69131 7.43145 10
    endloop
  endfacet
  facet normal 0 0 1
    outer loop
      vertex 6.69131 7.43145 10
      vertex 6.35674 7.05988 10
      vertex 8.09017 5.87785 10
    endloop
  endfacet
  facet normal 0 0 1
    outer loop
      vertex 8.09017 5.87785 10
      vertex 7.68566 5.58396 10
      vertex 9.13546 4.06737 10
    endloop
  endfacet
  facet normal 0 0 1
    outer loop
      vertex 9.13546 4.06737 10
      vertex 8.67868 3.864 10
      vertex 9.78148 2.07912 10
    endloop
  endfacet
  facet normal 0 0 1
    outer loop
      vertex 9.78148 2.07912 10
      vertex 9.2924 1.97516 10
      vertex 10 0 10
    endloop
  endfacet
  facet normal 0 0 1
    outer loop
      vertex 9.2924 1.97516 10
      vertex 9.47372 0.25 10
      vertex 10 0 10
    endloop
  endfacet
  facet normal 0 0 1
    outer loop
      vertex 10 0 10
      vertex 3.25993 0.25 10
      vertex 3.25993 -0.25 10
    endloop
  endfacet
  facet normal 0 0 1
    outer loop
      vertex 8.67868 3.864 10
      vertex 9.2924 1.97516 10
      vertex 9.78148 2.07912 10
    endloop
  endfacet
  facet normal 0 0 1
    outer loop
      vertex 2.80418 -1.80214 10
      vertex 3.25993 -0.25 10
      vertex -3.19831 0.939109 10
    endloop
  endfacet
  facet normal 0 0 1
    outer loop
      vertex 0.25 -9.44796 10
      vertex 0.25 -3.19525 10
      vertex -0.25 -3.26714 10
    endloop
  endfacet
  facet normal 0 0 1
    outer loop
      vertex -3.19831 -0.939109 10
      vertex -0.474383 -3.2994 10
      vertex -0.25 -3.26714 10
    endloop
  endfacet
  facet normal 0 0 1
    outer loop
      vertex -3.19831 -0.939109 10
      vertex -2.18287 -2.51917 10
      vertex -0.474383 -3.2994 10
    endloop
  endfacet
  facet normal 0 0 1
    outer loop
      vertex -3.19831 0.25 10
      vertex -9.47372 0.25 10
      vertex -3.19831 -0.25 10
    endloop
  endfacet
  facet normal 0 0 1
    outer loop
      vertex -7.68566 -5.58396 10
      vertex -8.67868 -3.864 10
      vertex -8.09017 -5.87785 10
    endloop
  endfacet
  facet normal 0 0 1
    outer loop
      vertex -0.99302 -9.44796 10
      vertex -2.93566 -9.03504 10
      vertex -1.04529 -9.94522 10
    endloop
  endfacet
  facet normal 0 0 1
    outer loop
      vertex -2.93566 -9.03504 10
      vertex -4.75 -8.22724 10
      vertex -3.09017 -9.51056 10
    endloop
  endfacet
  facet normal 0 0 1
    outer loop
      vertex -4.75 -8.22724 10
      vertex -6.35674 -7.05988 10
      vertex -5 -8.66025 10
    endloop
  endfacet
  facet normal 0 0 1
    outer loop
      vertex -6.35674 -7.05988 10
      vertex -7.68566 -5.58396 10
      vertex -6.69131 -7.43145 10
    endloop
  endfacet
  facet normal 0 0 1
    outer loop
      vertex 8.67868 -3.864 10
      vertex 7.68566 -5.58396 10
      vertex 9.13546 -4.06737 10
    endloop
  endfacet
  facet normal 0 0 1
    outer loop
      vertex -9.47372 -0.25 10
      vertex -3.19831 -0.25 10
      vertex -9.47372 0.25 10
    endloop
  endfacet
  facet normal 0 0 1
    outer loop
      vertex 2.80418 1.80214 10
      vertex 1.38472 3.03211 10
      vertex -2.18287 2.51917 10
    endloop
  endfacet
  facet normal 0 0 1
    outer loop
      vertex 3.25993 0.25 10
      vertex 2.80418 1.80214 10
      vertex -2.18287 2.51917 10
    endloop
  endfacet
  facet normal 0 0 1
    outer loop
      vertex 0.99302 -9.44796 10
      vertex 0.25 -9.44796 10
      vertex 1.04529 -9.94522 10
    endloop
  endfacet
  facet normal 0 0 1
    outer loop
      vertex -9.2924 1.97516 10
      vertex -8.67868 3.864 10
      vertex -9.78148 2.07912 10
    endloop
  endfacet
endsolid OpenSCAD_Model
